G75*
%MOIN*%
%OFA0B0*%
%FSLAX25Y25*%
%IPPOS*%
%LPD*%
%AMOC8*
5,1,8,0,0,1.08239X$1,22.5*
%
%ADD10C,0.01600*%
%ADD11C,0.00800*%
%ADD12C,0.00500*%
%ADD13C,0.00400*%
D10*
X0015799Y0007181D02*
X0247431Y0007181D01*
X0259424Y0018440D02*
X0259424Y0112975D01*
X0259420Y0113257D01*
X0259410Y0113540D01*
X0259393Y0113822D01*
X0259368Y0114104D01*
X0259337Y0114385D01*
X0259299Y0114665D01*
X0259254Y0114944D01*
X0259202Y0115222D01*
X0259144Y0115499D01*
X0259078Y0115774D01*
X0259006Y0116048D01*
X0258928Y0116319D01*
X0258842Y0116589D01*
X0258750Y0116856D01*
X0258652Y0117121D01*
X0258547Y0117384D01*
X0258435Y0117644D01*
X0258318Y0117901D01*
X0258194Y0118155D01*
X0258063Y0118406D01*
X0257927Y0118654D01*
X0257785Y0118898D01*
X0257636Y0119139D01*
X0257482Y0119376D01*
X0257322Y0119609D01*
X0257157Y0119839D01*
X0256986Y0120064D01*
X0256809Y0120285D01*
X0256627Y0120501D01*
X0256440Y0120713D01*
X0256247Y0120920D01*
X0256050Y0121123D01*
X0255848Y0121320D01*
X0255641Y0121513D01*
X0255429Y0121700D01*
X0255213Y0121882D01*
X0254992Y0122059D01*
X0254767Y0122231D01*
X0254538Y0122396D01*
X0254305Y0122557D01*
X0254068Y0122711D01*
X0253827Y0122859D01*
X0253583Y0123002D01*
X0253335Y0123138D01*
X0253084Y0123269D01*
X0252830Y0123393D01*
X0252573Y0123511D01*
X0252314Y0123623D01*
X0252051Y0123728D01*
X0251786Y0123827D01*
X0251519Y0123919D01*
X0251249Y0124004D01*
X0250978Y0124084D01*
X0250704Y0124156D01*
X0250429Y0124221D01*
X0250153Y0124280D01*
X0249875Y0124332D01*
X0249596Y0124377D01*
X0249315Y0124416D01*
X0249034Y0124447D01*
X0248753Y0124472D01*
X0248470Y0124489D01*
X0248188Y0124500D01*
X0247905Y0124504D01*
X0015709Y0124504D01*
X0015433Y0124500D01*
X0015157Y0124490D01*
X0014881Y0124473D01*
X0014606Y0124449D01*
X0014332Y0124419D01*
X0014058Y0124382D01*
X0013785Y0124339D01*
X0013514Y0124289D01*
X0013244Y0124232D01*
X0012975Y0124169D01*
X0012708Y0124099D01*
X0012442Y0124023D01*
X0012179Y0123941D01*
X0011917Y0123852D01*
X0011658Y0123757D01*
X0011401Y0123655D01*
X0011147Y0123548D01*
X0010895Y0123434D01*
X0010647Y0123314D01*
X0010401Y0123188D01*
X0010158Y0123057D01*
X0009919Y0122919D01*
X0009683Y0122776D01*
X0009450Y0122627D01*
X0009221Y0122473D01*
X0008996Y0122313D01*
X0008775Y0122147D01*
X0008558Y0121977D01*
X0008345Y0121801D01*
X0008137Y0121620D01*
X0007932Y0121434D01*
X0007733Y0121243D01*
X0007538Y0121048D01*
X0007348Y0120847D01*
X0007163Y0120643D01*
X0006982Y0120433D01*
X0006807Y0120220D01*
X0006638Y0120002D01*
X0006473Y0119781D01*
X0006314Y0119555D01*
X0006160Y0119325D01*
X0006012Y0119092D01*
X0005870Y0118856D01*
X0005733Y0118616D01*
X0005602Y0118373D01*
X0005478Y0118126D01*
X0005359Y0117877D01*
X0005246Y0117625D01*
X0005139Y0117370D01*
X0005039Y0117113D01*
X0004945Y0116854D01*
X0004857Y0116592D01*
X0004775Y0116328D01*
X0004700Y0116062D01*
X0004631Y0115795D01*
X0004569Y0115526D01*
X0004513Y0115256D01*
X0004464Y0114984D01*
X0004422Y0114711D01*
X0004386Y0114437D01*
X0004357Y0114163D01*
X0004334Y0113888D01*
X0004318Y0113612D01*
X0004309Y0113336D01*
X0004306Y0113060D01*
X0004306Y0018474D01*
X0004312Y0018199D01*
X0004325Y0017924D01*
X0004344Y0017649D01*
X0004369Y0017375D01*
X0004402Y0017102D01*
X0004440Y0016829D01*
X0004486Y0016557D01*
X0004538Y0016287D01*
X0004596Y0016018D01*
X0004661Y0015750D01*
X0004733Y0015485D01*
X0004811Y0015221D01*
X0004895Y0014958D01*
X0004985Y0014698D01*
X0005082Y0014441D01*
X0005185Y0014185D01*
X0005294Y0013933D01*
X0005410Y0013682D01*
X0005531Y0013435D01*
X0005658Y0013191D01*
X0005791Y0012950D01*
X0005930Y0012712D01*
X0006074Y0012478D01*
X0006224Y0012247D01*
X0006380Y0012020D01*
X0006541Y0011797D01*
X0006707Y0011577D01*
X0006879Y0011362D01*
X0007056Y0011151D01*
X0007238Y0010944D01*
X0007425Y0010742D01*
X0007616Y0010545D01*
X0007813Y0010352D01*
X0008014Y0010163D01*
X0008219Y0009980D01*
X0008429Y0009802D01*
X0008643Y0009629D01*
X0008861Y0009461D01*
X0009084Y0009298D01*
X0009310Y0009141D01*
X0009539Y0008990D01*
X0009773Y0008844D01*
X0010010Y0008703D01*
X0010250Y0008569D01*
X0010493Y0008440D01*
X0010740Y0008317D01*
X0010989Y0008200D01*
X0011241Y0008089D01*
X0011496Y0007985D01*
X0011753Y0007886D01*
X0012012Y0007794D01*
X0012274Y0007708D01*
X0012537Y0007629D01*
X0012803Y0007555D01*
X0013070Y0007489D01*
X0013338Y0007428D01*
X0013608Y0007374D01*
X0013880Y0007327D01*
X0014152Y0007287D01*
X0014425Y0007252D01*
X0014699Y0007225D01*
X0014974Y0007204D01*
X0015248Y0007190D01*
X0015524Y0007182D01*
X0015799Y0007181D01*
X0247432Y0007181D02*
X0247713Y0007175D01*
X0247994Y0007177D01*
X0248275Y0007185D01*
X0248555Y0007200D01*
X0248836Y0007221D01*
X0249115Y0007250D01*
X0249394Y0007285D01*
X0249672Y0007327D01*
X0249949Y0007375D01*
X0250225Y0007431D01*
X0250499Y0007493D01*
X0250771Y0007561D01*
X0251042Y0007636D01*
X0251311Y0007718D01*
X0251578Y0007806D01*
X0251843Y0007901D01*
X0252105Y0008001D01*
X0252365Y0008109D01*
X0252622Y0008222D01*
X0252877Y0008342D01*
X0253128Y0008468D01*
X0253376Y0008599D01*
X0253621Y0008737D01*
X0253863Y0008881D01*
X0254101Y0009030D01*
X0254336Y0009185D01*
X0254566Y0009346D01*
X0254793Y0009512D01*
X0255015Y0009684D01*
X0255234Y0009861D01*
X0255448Y0010043D01*
X0255657Y0010231D01*
X0255862Y0010423D01*
X0256062Y0010620D01*
X0256258Y0010822D01*
X0256448Y0011029D01*
X0256634Y0011240D01*
X0256814Y0011456D01*
X0256989Y0011676D01*
X0257159Y0011900D01*
X0257323Y0012128D01*
X0257481Y0012361D01*
X0257634Y0012596D01*
X0257781Y0012836D01*
X0257923Y0013079D01*
X0258058Y0013325D01*
X0258188Y0013575D01*
X0258311Y0013827D01*
X0258428Y0014083D01*
X0258539Y0014341D01*
X0258644Y0014602D01*
X0258743Y0014865D01*
X0258835Y0015131D01*
X0258920Y0015398D01*
X0258999Y0015668D01*
X0259072Y0015940D01*
X0259138Y0016213D01*
X0259197Y0016488D01*
X0259250Y0016764D01*
X0259296Y0017041D01*
X0259335Y0017319D01*
X0259368Y0017598D01*
X0259394Y0017878D01*
X0259413Y0018159D01*
X0259425Y0018440D01*
D11*
X0231243Y0038980D02*
X0231243Y0043184D01*
X0229842Y0041782D01*
X0228441Y0043184D01*
X0228441Y0038980D01*
X0226639Y0038980D02*
X0226639Y0041782D01*
X0225238Y0043184D01*
X0223837Y0041782D01*
X0223837Y0038980D01*
X0222035Y0038980D02*
X0219933Y0038980D01*
X0219233Y0039681D01*
X0219233Y0042483D01*
X0219933Y0043184D01*
X0222035Y0043184D01*
X0222035Y0038980D01*
X0217431Y0038980D02*
X0214629Y0038980D01*
X0217431Y0038980D02*
X0217431Y0043184D01*
X0214629Y0043184D01*
X0216030Y0041082D02*
X0217431Y0041082D01*
X0223837Y0041082D02*
X0226639Y0041082D01*
X0208223Y0043184D02*
X0206822Y0043184D01*
X0207523Y0043184D02*
X0207523Y0038980D01*
X0208223Y0038980D02*
X0206822Y0038980D01*
X0205154Y0038980D02*
X0205154Y0043184D01*
X0202352Y0038980D01*
X0202352Y0043184D01*
X0195946Y0042483D02*
X0195946Y0041782D01*
X0195246Y0041082D01*
X0193844Y0041082D01*
X0193144Y0040381D01*
X0193144Y0039681D01*
X0193844Y0038980D01*
X0195246Y0038980D01*
X0195946Y0039681D01*
X0191342Y0040381D02*
X0189241Y0040381D01*
X0188540Y0041082D01*
X0188540Y0042483D01*
X0189241Y0043184D01*
X0191342Y0043184D01*
X0191342Y0038980D01*
X0189941Y0040381D02*
X0188540Y0038980D01*
X0186738Y0038980D02*
X0185337Y0038980D01*
X0186038Y0038980D02*
X0186038Y0043184D01*
X0186738Y0043184D02*
X0185337Y0043184D01*
X0179065Y0043184D02*
X0179065Y0038980D01*
X0176263Y0038980D01*
X0174461Y0038980D02*
X0174461Y0041782D01*
X0173060Y0043184D01*
X0171659Y0041782D01*
X0171659Y0038980D01*
X0169857Y0038980D02*
X0169857Y0043184D01*
X0167055Y0038980D01*
X0167055Y0043184D01*
X0165253Y0043184D02*
X0165253Y0038980D01*
X0165253Y0040381D02*
X0162451Y0043184D01*
X0160649Y0041782D02*
X0159248Y0043184D01*
X0157847Y0041782D01*
X0157847Y0038980D01*
X0160649Y0038980D02*
X0160649Y0041782D01*
X0160649Y0041082D02*
X0157847Y0041082D01*
X0162451Y0038980D02*
X0164553Y0041082D01*
X0171659Y0041082D02*
X0174461Y0041082D01*
X0193144Y0042483D02*
X0193844Y0043184D01*
X0195246Y0043184D01*
X0195946Y0042483D01*
X0194545Y0052736D02*
X0195246Y0053437D01*
X0195246Y0056239D01*
X0195946Y0055538D02*
X0194545Y0055538D01*
X0197748Y0054838D02*
X0197748Y0053437D01*
X0198448Y0052736D01*
X0199850Y0052736D01*
X0200550Y0053437D01*
X0200550Y0054838D01*
X0199850Y0055538D01*
X0198448Y0055538D01*
X0197748Y0054838D01*
X0202352Y0054838D02*
X0202352Y0053437D01*
X0203052Y0052736D01*
X0205154Y0052736D01*
X0205154Y0056940D01*
X0205154Y0055538D02*
X0203052Y0055538D01*
X0202352Y0054838D01*
X0206956Y0054838D02*
X0206956Y0053437D01*
X0207656Y0052736D01*
X0209057Y0052736D01*
X0209758Y0053437D01*
X0209758Y0054838D01*
X0209057Y0055538D01*
X0207656Y0055538D01*
X0206956Y0054838D01*
X0211560Y0054838D02*
X0211560Y0056239D01*
X0212260Y0056940D01*
X0214362Y0056940D01*
X0214362Y0052736D01*
X0214362Y0054137D02*
X0212260Y0054137D01*
X0211560Y0054838D01*
X0212961Y0054137D02*
X0211560Y0052736D01*
X0220634Y0052736D02*
X0222035Y0052736D01*
X0221335Y0052736D02*
X0221335Y0055538D01*
X0222035Y0055538D01*
X0221335Y0056940D02*
X0221335Y0057640D01*
X0223837Y0056239D02*
X0223837Y0054838D01*
X0224537Y0054137D01*
X0226639Y0054137D01*
X0226639Y0052736D02*
X0226639Y0056940D01*
X0224537Y0056940D01*
X0223837Y0056239D01*
X0228441Y0056239D02*
X0228441Y0054838D01*
X0229141Y0054137D01*
X0231243Y0054137D01*
X0231243Y0052736D02*
X0231243Y0056940D01*
X0229141Y0056940D01*
X0228441Y0056239D01*
X0229842Y0054137D02*
X0228441Y0052736D01*
X0188273Y0053437D02*
X0187572Y0052736D01*
X0185471Y0052736D01*
X0183669Y0053437D02*
X0182969Y0052736D01*
X0181567Y0052736D01*
X0180867Y0053437D01*
X0180867Y0054838D01*
X0181567Y0055538D01*
X0182969Y0055538D01*
X0183669Y0054838D01*
X0183669Y0053437D01*
X0185471Y0055538D02*
X0187572Y0055538D01*
X0188273Y0054838D01*
X0188273Y0053437D01*
X0179065Y0052736D02*
X0179065Y0055538D01*
X0176963Y0055538D01*
X0176263Y0054838D01*
X0176263Y0052736D01*
X0173761Y0053437D02*
X0173060Y0052736D01*
X0173761Y0053437D02*
X0173761Y0056239D01*
X0174461Y0055538D02*
X0173060Y0055538D01*
X0171392Y0055538D02*
X0171392Y0052736D01*
X0171392Y0054137D02*
X0169991Y0055538D01*
X0169290Y0055538D01*
X0167555Y0054838D02*
X0167555Y0053437D01*
X0166855Y0052736D01*
X0165454Y0052736D01*
X0164753Y0053437D01*
X0164753Y0054838D01*
X0165454Y0055538D01*
X0166855Y0055538D01*
X0167555Y0054838D01*
X0162951Y0056940D02*
X0162251Y0056940D01*
X0162251Y0052736D01*
X0162951Y0052736D02*
X0161550Y0052736D01*
X0159882Y0052736D02*
X0158481Y0052736D01*
X0159182Y0052736D02*
X0159182Y0056940D01*
X0159882Y0056940D01*
X0156813Y0054838D02*
X0156112Y0055538D01*
X0154711Y0055538D01*
X0154011Y0054838D01*
X0154011Y0054137D01*
X0156813Y0054137D01*
X0156813Y0053437D02*
X0156813Y0054838D01*
X0156813Y0053437D02*
X0156112Y0052736D01*
X0154711Y0052736D01*
X0152209Y0052736D02*
X0152209Y0055538D01*
X0152209Y0054137D02*
X0150808Y0055538D01*
X0150107Y0055538D01*
X0143768Y0054838D02*
X0140966Y0054838D01*
X0139165Y0054838D02*
X0136362Y0054838D01*
X0136362Y0055538D02*
X0136362Y0052736D01*
X0139165Y0052736D02*
X0139165Y0055538D01*
X0137763Y0056940D01*
X0136362Y0055538D01*
X0134561Y0056940D02*
X0131758Y0056940D01*
X0133159Y0056940D02*
X0133159Y0052736D01*
X0140966Y0052736D02*
X0140966Y0056940D01*
X0143768Y0056940D02*
X0143768Y0052736D01*
D12*
X0157499Y0076591D02*
X0160502Y0076591D01*
X0157499Y0079594D01*
X0157499Y0080344D01*
X0158250Y0081095D01*
X0159751Y0081095D01*
X0160502Y0080344D01*
X0162103Y0080344D02*
X0162854Y0081095D01*
X0164355Y0081095D01*
X0165106Y0080344D01*
X0165106Y0077342D01*
X0164355Y0076591D01*
X0162854Y0076591D01*
X0162103Y0077342D01*
D13*
X0162891Y0073096D02*
X0164425Y0073096D01*
X0165192Y0072329D01*
X0165192Y0069259D01*
X0164425Y0068492D01*
X0162891Y0068492D01*
X0162123Y0069259D01*
X0160589Y0070794D02*
X0157519Y0070794D01*
X0158287Y0073096D02*
X0160589Y0070794D01*
X0162123Y0072329D02*
X0162891Y0073096D01*
X0158287Y0073096D02*
X0158287Y0068492D01*
X0158329Y0084039D02*
X0159863Y0084039D01*
X0160631Y0084806D01*
X0160631Y0086341D02*
X0159096Y0087108D01*
X0158329Y0087108D01*
X0157561Y0086341D01*
X0157561Y0084806D01*
X0158329Y0084039D01*
X0162165Y0084039D02*
X0163700Y0085573D01*
X0162933Y0085573D02*
X0165234Y0085573D01*
X0165234Y0084039D02*
X0165234Y0088643D01*
X0162933Y0088643D01*
X0162165Y0087875D01*
X0162165Y0086341D01*
X0162933Y0085573D01*
X0160631Y0086341D02*
X0160631Y0088643D01*
X0157561Y0088643D01*
X0158509Y0092429D02*
X0157741Y0093196D01*
X0157741Y0093964D01*
X0158509Y0094731D01*
X0160811Y0094731D01*
X0160811Y0093196D01*
X0160043Y0092429D01*
X0158509Y0092429D01*
X0162345Y0092429D02*
X0163880Y0093964D01*
X0163113Y0093964D02*
X0165414Y0093964D01*
X0165414Y0092429D02*
X0165414Y0097033D01*
X0163113Y0097033D01*
X0162345Y0096266D01*
X0162345Y0094731D01*
X0163113Y0093964D01*
X0160811Y0094731D02*
X0159276Y0096266D01*
X0157741Y0097033D01*
X0114864Y0069813D02*
X0114864Y0066744D01*
X0114864Y0068279D02*
X0119468Y0068279D01*
X0117933Y0066744D01*
X0117166Y0065209D02*
X0116399Y0064442D01*
X0116399Y0062140D01*
X0114864Y0062140D02*
X0119468Y0062140D01*
X0119468Y0064442D01*
X0118701Y0065209D01*
X0117166Y0065209D01*
X0116399Y0063675D02*
X0114864Y0065209D01*
X0111082Y0064028D02*
X0110315Y0064795D01*
X0108780Y0064795D01*
X0108013Y0064028D01*
X0108013Y0061726D01*
X0108013Y0063261D02*
X0106478Y0064795D01*
X0102787Y0064237D02*
X0102019Y0065004D01*
X0100485Y0065004D01*
X0099717Y0064237D01*
X0099717Y0061935D01*
X0098183Y0061935D02*
X0102787Y0061935D01*
X0102787Y0064237D01*
X0099717Y0063470D02*
X0098183Y0065004D01*
X0098950Y0066539D02*
X0098183Y0067306D01*
X0098183Y0068841D01*
X0098950Y0069608D01*
X0099717Y0069608D01*
X0100485Y0068841D01*
X0100485Y0068074D01*
X0100485Y0068841D02*
X0101252Y0069608D01*
X0102019Y0069608D01*
X0102787Y0068841D01*
X0102787Y0067306D01*
X0102019Y0066539D01*
X0106478Y0066330D02*
X0109548Y0069399D01*
X0110315Y0069399D01*
X0111082Y0068632D01*
X0111082Y0067097D01*
X0110315Y0066330D01*
X0111082Y0064028D02*
X0111082Y0061726D01*
X0106478Y0061726D01*
X0106478Y0066330D02*
X0106478Y0069399D01*
X0094253Y0068715D02*
X0091951Y0066413D01*
X0091951Y0069482D01*
X0089649Y0068715D02*
X0094253Y0068715D01*
X0093486Y0064878D02*
X0091951Y0064878D01*
X0091184Y0064111D01*
X0091184Y0061809D01*
X0091184Y0063344D02*
X0089649Y0064878D01*
X0093486Y0064878D02*
X0094253Y0064111D01*
X0094253Y0061809D01*
X0089649Y0061809D01*
X0085613Y0062026D02*
X0085613Y0064328D01*
X0084846Y0065095D01*
X0083311Y0065095D01*
X0082544Y0064328D01*
X0082544Y0062026D01*
X0082544Y0063561D02*
X0081009Y0065095D01*
X0081777Y0066630D02*
X0081009Y0067397D01*
X0081009Y0068932D01*
X0081777Y0069699D01*
X0084846Y0069699D01*
X0085613Y0068932D01*
X0085613Y0067397D01*
X0084846Y0066630D01*
X0084079Y0066630D01*
X0083311Y0067397D01*
X0083311Y0069699D01*
X0077860Y0068397D02*
X0073256Y0068397D01*
X0073256Y0069931D02*
X0073256Y0066862D01*
X0073256Y0065327D02*
X0074790Y0063793D01*
X0074790Y0064560D02*
X0074790Y0062258D01*
X0073256Y0062258D02*
X0077860Y0062258D01*
X0077860Y0064560D01*
X0077092Y0065327D01*
X0075558Y0065327D01*
X0074790Y0064560D01*
X0076325Y0066862D02*
X0077860Y0068397D01*
X0077092Y0071466D02*
X0074023Y0071466D01*
X0077092Y0074535D01*
X0074023Y0074535D01*
X0073256Y0073768D01*
X0073256Y0072233D01*
X0074023Y0071466D01*
X0077092Y0071466D02*
X0077860Y0072233D01*
X0077860Y0073768D01*
X0077092Y0074535D01*
X0068751Y0073363D02*
X0067216Y0071829D01*
X0068751Y0073363D02*
X0064147Y0073363D01*
X0064147Y0071829D02*
X0064147Y0074898D01*
X0064147Y0070294D02*
X0064147Y0067225D01*
X0064147Y0068760D02*
X0068751Y0068760D01*
X0067216Y0067225D01*
X0066449Y0065690D02*
X0065682Y0064923D01*
X0065682Y0062621D01*
X0065682Y0064156D02*
X0064147Y0065690D01*
X0066449Y0065690D02*
X0067984Y0065690D01*
X0068751Y0064923D01*
X0068751Y0062621D01*
X0064147Y0062621D01*
X0081009Y0062026D02*
X0085613Y0062026D01*
M02*
