G75*
%MOIN*%
%OFA0B0*%
%FSLAX25Y25*%
%IPPOS*%
%LPD*%
%AMOC8*
5,1,8,0,0,1.08239X$1,22.5*
%
%ADD10C,0.01600*%
%ADD11C,0.00700*%
%ADD12C,0.00500*%
%ADD13C,0.00300*%
%ADD14C,0.00200*%
%ADD15C,0.00600*%
%ADD16C,0.01000*%
%ADD17C,0.00400*%
%ADD18C,0.00800*%
%ADD19C,0.00040*%
%ADD20R,0.00787X0.00787*%
%ADD21R,0.00984X0.00591*%
D10*
X0015799Y0007181D02*
X0247431Y0007181D01*
X0259424Y0018440D02*
X0259424Y0112975D01*
X0259420Y0113257D01*
X0259410Y0113540D01*
X0259393Y0113822D01*
X0259368Y0114104D01*
X0259337Y0114385D01*
X0259299Y0114665D01*
X0259254Y0114944D01*
X0259202Y0115222D01*
X0259144Y0115499D01*
X0259078Y0115774D01*
X0259006Y0116048D01*
X0258928Y0116319D01*
X0258842Y0116589D01*
X0258750Y0116856D01*
X0258652Y0117121D01*
X0258547Y0117384D01*
X0258435Y0117644D01*
X0258318Y0117901D01*
X0258194Y0118155D01*
X0258063Y0118406D01*
X0257927Y0118654D01*
X0257785Y0118898D01*
X0257636Y0119139D01*
X0257482Y0119376D01*
X0257322Y0119609D01*
X0257157Y0119839D01*
X0256986Y0120064D01*
X0256809Y0120285D01*
X0256627Y0120501D01*
X0256440Y0120713D01*
X0256247Y0120920D01*
X0256050Y0121123D01*
X0255848Y0121320D01*
X0255641Y0121513D01*
X0255429Y0121700D01*
X0255213Y0121882D01*
X0254992Y0122059D01*
X0254767Y0122231D01*
X0254538Y0122396D01*
X0254305Y0122557D01*
X0254068Y0122711D01*
X0253827Y0122859D01*
X0253583Y0123002D01*
X0253335Y0123138D01*
X0253084Y0123269D01*
X0252830Y0123393D01*
X0252573Y0123511D01*
X0252314Y0123623D01*
X0252051Y0123728D01*
X0251786Y0123827D01*
X0251519Y0123919D01*
X0251249Y0124004D01*
X0250978Y0124084D01*
X0250704Y0124156D01*
X0250429Y0124221D01*
X0250153Y0124280D01*
X0249875Y0124332D01*
X0249596Y0124377D01*
X0249315Y0124416D01*
X0249034Y0124447D01*
X0248753Y0124472D01*
X0248470Y0124489D01*
X0248188Y0124500D01*
X0247905Y0124504D01*
X0015709Y0124504D01*
X0015433Y0124500D01*
X0015157Y0124490D01*
X0014881Y0124473D01*
X0014606Y0124449D01*
X0014332Y0124419D01*
X0014058Y0124382D01*
X0013785Y0124339D01*
X0013514Y0124289D01*
X0013244Y0124232D01*
X0012975Y0124169D01*
X0012708Y0124099D01*
X0012442Y0124023D01*
X0012179Y0123941D01*
X0011917Y0123852D01*
X0011658Y0123757D01*
X0011401Y0123655D01*
X0011147Y0123548D01*
X0010895Y0123434D01*
X0010647Y0123314D01*
X0010401Y0123188D01*
X0010158Y0123057D01*
X0009919Y0122919D01*
X0009683Y0122776D01*
X0009450Y0122627D01*
X0009221Y0122473D01*
X0008996Y0122313D01*
X0008775Y0122147D01*
X0008558Y0121977D01*
X0008345Y0121801D01*
X0008137Y0121620D01*
X0007932Y0121434D01*
X0007733Y0121243D01*
X0007538Y0121048D01*
X0007348Y0120847D01*
X0007163Y0120643D01*
X0006982Y0120433D01*
X0006807Y0120220D01*
X0006638Y0120002D01*
X0006473Y0119781D01*
X0006314Y0119555D01*
X0006160Y0119325D01*
X0006012Y0119092D01*
X0005870Y0118856D01*
X0005733Y0118616D01*
X0005602Y0118373D01*
X0005478Y0118126D01*
X0005359Y0117877D01*
X0005246Y0117625D01*
X0005139Y0117370D01*
X0005039Y0117113D01*
X0004945Y0116854D01*
X0004857Y0116592D01*
X0004775Y0116328D01*
X0004700Y0116062D01*
X0004631Y0115795D01*
X0004569Y0115526D01*
X0004513Y0115256D01*
X0004464Y0114984D01*
X0004422Y0114711D01*
X0004386Y0114437D01*
X0004357Y0114163D01*
X0004334Y0113888D01*
X0004318Y0113612D01*
X0004309Y0113336D01*
X0004306Y0113060D01*
X0004306Y0018474D01*
X0004312Y0018199D01*
X0004325Y0017924D01*
X0004344Y0017649D01*
X0004369Y0017375D01*
X0004402Y0017102D01*
X0004440Y0016829D01*
X0004486Y0016557D01*
X0004538Y0016287D01*
X0004596Y0016018D01*
X0004661Y0015750D01*
X0004733Y0015485D01*
X0004811Y0015221D01*
X0004895Y0014958D01*
X0004985Y0014698D01*
X0005082Y0014441D01*
X0005185Y0014185D01*
X0005294Y0013933D01*
X0005410Y0013682D01*
X0005531Y0013435D01*
X0005658Y0013191D01*
X0005791Y0012950D01*
X0005930Y0012712D01*
X0006074Y0012478D01*
X0006224Y0012247D01*
X0006380Y0012020D01*
X0006541Y0011797D01*
X0006707Y0011577D01*
X0006879Y0011362D01*
X0007056Y0011151D01*
X0007238Y0010944D01*
X0007425Y0010742D01*
X0007616Y0010545D01*
X0007813Y0010352D01*
X0008014Y0010163D01*
X0008219Y0009980D01*
X0008429Y0009802D01*
X0008643Y0009629D01*
X0008861Y0009461D01*
X0009084Y0009298D01*
X0009310Y0009141D01*
X0009539Y0008990D01*
X0009773Y0008844D01*
X0010010Y0008703D01*
X0010250Y0008569D01*
X0010493Y0008440D01*
X0010740Y0008317D01*
X0010989Y0008200D01*
X0011241Y0008089D01*
X0011496Y0007985D01*
X0011753Y0007886D01*
X0012012Y0007794D01*
X0012274Y0007708D01*
X0012537Y0007629D01*
X0012803Y0007555D01*
X0013070Y0007489D01*
X0013338Y0007428D01*
X0013608Y0007374D01*
X0013880Y0007327D01*
X0014152Y0007287D01*
X0014425Y0007252D01*
X0014699Y0007225D01*
X0014974Y0007204D01*
X0015248Y0007190D01*
X0015524Y0007182D01*
X0015799Y0007181D01*
X0247432Y0007181D02*
X0247713Y0007175D01*
X0247994Y0007177D01*
X0248275Y0007185D01*
X0248555Y0007200D01*
X0248836Y0007221D01*
X0249115Y0007250D01*
X0249394Y0007285D01*
X0249672Y0007327D01*
X0249949Y0007375D01*
X0250225Y0007431D01*
X0250499Y0007493D01*
X0250771Y0007561D01*
X0251042Y0007636D01*
X0251311Y0007718D01*
X0251578Y0007806D01*
X0251843Y0007901D01*
X0252105Y0008001D01*
X0252365Y0008109D01*
X0252622Y0008222D01*
X0252877Y0008342D01*
X0253128Y0008468D01*
X0253376Y0008599D01*
X0253621Y0008737D01*
X0253863Y0008881D01*
X0254101Y0009030D01*
X0254336Y0009185D01*
X0254566Y0009346D01*
X0254793Y0009512D01*
X0255015Y0009684D01*
X0255234Y0009861D01*
X0255448Y0010043D01*
X0255657Y0010231D01*
X0255862Y0010423D01*
X0256062Y0010620D01*
X0256258Y0010822D01*
X0256448Y0011029D01*
X0256634Y0011240D01*
X0256814Y0011456D01*
X0256989Y0011676D01*
X0257159Y0011900D01*
X0257323Y0012128D01*
X0257481Y0012361D01*
X0257634Y0012596D01*
X0257781Y0012836D01*
X0257923Y0013079D01*
X0258058Y0013325D01*
X0258188Y0013575D01*
X0258311Y0013827D01*
X0258428Y0014083D01*
X0258539Y0014341D01*
X0258644Y0014602D01*
X0258743Y0014865D01*
X0258835Y0015131D01*
X0258920Y0015398D01*
X0258999Y0015668D01*
X0259072Y0015940D01*
X0259138Y0016213D01*
X0259197Y0016488D01*
X0259250Y0016764D01*
X0259296Y0017041D01*
X0259335Y0017319D01*
X0259368Y0017598D01*
X0259394Y0017878D01*
X0259413Y0018159D01*
X0259425Y0018440D01*
D11*
X0017758Y0100861D02*
X0012220Y0100861D01*
D12*
X0019450Y0099851D02*
X0023120Y0099851D01*
X0021285Y0101686D02*
X0021285Y0098016D01*
X0119759Y0096028D02*
X0119759Y0095444D01*
X0120343Y0094860D01*
X0121511Y0094860D01*
X0122094Y0094277D01*
X0122094Y0093693D01*
X0121511Y0093109D01*
X0120343Y0093109D01*
X0119759Y0093693D01*
X0120343Y0091399D02*
X0119759Y0090815D01*
X0119759Y0090231D01*
X0120343Y0089647D01*
X0121511Y0089647D01*
X0122094Y0089063D01*
X0122094Y0088479D01*
X0121511Y0087896D01*
X0120343Y0087896D01*
X0119759Y0088479D01*
X0120343Y0086185D02*
X0119759Y0085601D01*
X0119759Y0083266D01*
X0120343Y0082682D01*
X0121511Y0082682D01*
X0122094Y0083266D01*
X0122094Y0084434D01*
X0120927Y0084434D01*
X0122094Y0085601D02*
X0121511Y0086185D01*
X0120343Y0086185D01*
X0123442Y0086185D02*
X0125777Y0082682D01*
X0125777Y0086185D01*
X0127125Y0086185D02*
X0128877Y0086185D01*
X0129461Y0085601D01*
X0129461Y0083266D01*
X0128877Y0082682D01*
X0127125Y0082682D01*
X0127125Y0086185D01*
X0127125Y0087896D02*
X0129461Y0087896D01*
X0127125Y0087896D02*
X0127125Y0091399D01*
X0125777Y0090815D02*
X0125194Y0091399D01*
X0124026Y0091399D01*
X0123442Y0090815D01*
X0123442Y0088479D01*
X0124026Y0087896D01*
X0125194Y0087896D01*
X0125777Y0088479D01*
X0123442Y0086185D02*
X0123442Y0082682D01*
X0124026Y0080972D02*
X0123442Y0080388D01*
X0123442Y0078053D01*
X0124026Y0077469D01*
X0125194Y0077469D01*
X0125777Y0078053D01*
X0127125Y0078053D02*
X0127709Y0077469D01*
X0128877Y0077469D01*
X0129461Y0078053D01*
X0127125Y0078053D02*
X0127125Y0080388D01*
X0127709Y0080972D01*
X0128877Y0080972D01*
X0129461Y0080388D01*
X0125777Y0080388D02*
X0125194Y0080972D01*
X0124026Y0080972D01*
X0122094Y0080972D02*
X0122094Y0078636D01*
X0120927Y0077469D01*
X0119759Y0078636D01*
X0119759Y0080972D01*
X0136630Y0081016D02*
X0136630Y0078680D01*
X0137798Y0077513D01*
X0138965Y0078680D01*
X0138965Y0081016D01*
X0140313Y0080432D02*
X0140313Y0078097D01*
X0140897Y0077513D01*
X0142065Y0077513D01*
X0142648Y0078097D01*
X0143996Y0078097D02*
X0144580Y0077513D01*
X0145748Y0077513D01*
X0146332Y0078097D01*
X0143996Y0078097D02*
X0143996Y0080432D01*
X0144580Y0081016D01*
X0145748Y0081016D01*
X0146332Y0080432D01*
X0142648Y0080432D02*
X0142065Y0081016D01*
X0140897Y0081016D01*
X0140313Y0080432D01*
X0140313Y0082726D02*
X0140313Y0086229D01*
X0142648Y0082726D01*
X0142648Y0086229D01*
X0143996Y0086229D02*
X0145748Y0086229D01*
X0146332Y0085645D01*
X0146332Y0083310D01*
X0145748Y0082726D01*
X0143996Y0082726D01*
X0143996Y0086229D01*
X0143996Y0087940D02*
X0145748Y0087940D01*
X0146332Y0088523D01*
X0146332Y0090859D01*
X0145748Y0091443D01*
X0143996Y0091443D01*
X0143996Y0087940D01*
X0142648Y0087940D02*
X0140313Y0091443D01*
X0138965Y0091443D02*
X0136630Y0091443D01*
X0137798Y0091443D02*
X0137798Y0087940D01*
X0138382Y0086229D02*
X0137214Y0086229D01*
X0136630Y0085645D01*
X0136630Y0083310D01*
X0137214Y0082726D01*
X0138382Y0082726D01*
X0138965Y0083310D01*
X0138965Y0084478D01*
X0137798Y0084478D01*
X0138965Y0085645D02*
X0138382Y0086229D01*
X0140313Y0087940D02*
X0142648Y0091443D01*
X0142648Y0093153D02*
X0140313Y0096656D01*
X0138965Y0096072D02*
X0138965Y0094904D01*
X0138382Y0094321D01*
X0136630Y0094321D01*
X0137798Y0094321D02*
X0138965Y0093153D01*
X0140313Y0093153D02*
X0142648Y0096656D01*
X0143996Y0096656D02*
X0145748Y0096656D01*
X0146332Y0096072D01*
X0146332Y0093737D01*
X0145748Y0093153D01*
X0143996Y0093153D01*
X0143996Y0096656D01*
X0138965Y0096072D02*
X0138382Y0096656D01*
X0136630Y0096656D01*
X0136630Y0093153D01*
X0129461Y0093109D02*
X0129461Y0095444D01*
X0128293Y0096612D01*
X0127125Y0095444D01*
X0127125Y0093109D01*
X0125777Y0093693D02*
X0125777Y0096028D01*
X0125194Y0096612D01*
X0123442Y0096612D01*
X0123442Y0093109D01*
X0125194Y0093109D01*
X0125777Y0093693D01*
X0127125Y0094860D02*
X0129461Y0094860D01*
X0122094Y0096028D02*
X0121511Y0096612D01*
X0120343Y0096612D01*
X0119759Y0096028D01*
X0120343Y0091399D02*
X0121511Y0091399D01*
X0122094Y0090815D01*
X0152804Y0090938D02*
X0152804Y0090354D01*
X0153388Y0089770D01*
X0154555Y0089770D01*
X0155139Y0089186D01*
X0155139Y0088602D01*
X0154555Y0088019D01*
X0153388Y0088019D01*
X0152804Y0088602D01*
X0152804Y0086308D02*
X0153972Y0085141D01*
X0155139Y0086308D01*
X0155139Y0082805D01*
X0156487Y0082805D02*
X0157655Y0082805D01*
X0157071Y0082805D02*
X0157071Y0086308D01*
X0156487Y0086308D02*
X0157655Y0086308D01*
X0158943Y0085724D02*
X0158943Y0085141D01*
X0159526Y0084557D01*
X0160694Y0084557D01*
X0161278Y0083973D01*
X0161278Y0083389D01*
X0160694Y0082805D01*
X0159526Y0082805D01*
X0158943Y0083389D01*
X0158239Y0081095D02*
X0157071Y0081095D01*
X0156487Y0080511D01*
X0156487Y0078176D01*
X0157071Y0077592D01*
X0158239Y0077592D01*
X0158822Y0078176D01*
X0158822Y0080511D01*
X0158239Y0081095D01*
X0160170Y0080511D02*
X0160754Y0081095D01*
X0161922Y0081095D01*
X0162506Y0080511D01*
X0161922Y0079343D02*
X0160754Y0079343D01*
X0160170Y0079927D01*
X0160170Y0080511D01*
X0161922Y0079343D02*
X0162506Y0078759D01*
X0162506Y0078176D01*
X0161922Y0077592D01*
X0160754Y0077592D01*
X0160170Y0078176D01*
X0160170Y0075881D02*
X0161338Y0075881D01*
X0160754Y0075881D02*
X0160754Y0072378D01*
X0160170Y0072378D02*
X0161338Y0072378D01*
X0162626Y0072962D02*
X0163210Y0072378D01*
X0164377Y0072378D01*
X0164961Y0072962D01*
X0164961Y0075298D01*
X0164377Y0075881D01*
X0163210Y0075881D01*
X0162626Y0075298D01*
X0162626Y0072962D01*
X0158822Y0074130D02*
X0158822Y0075298D01*
X0158239Y0075881D01*
X0156487Y0075881D01*
X0156487Y0072378D01*
X0156487Y0073546D02*
X0158239Y0073546D01*
X0158822Y0074130D01*
X0158822Y0070668D02*
X0158822Y0067165D01*
X0156487Y0070668D01*
X0156487Y0067165D01*
X0155139Y0067749D02*
X0155139Y0068916D01*
X0153972Y0068916D01*
X0155139Y0067749D02*
X0154555Y0067165D01*
X0153388Y0067165D01*
X0152804Y0067749D01*
X0152804Y0070084D01*
X0153388Y0070668D01*
X0154555Y0070668D01*
X0155139Y0070084D01*
X0154555Y0072378D02*
X0155139Y0072962D01*
X0155139Y0074130D01*
X0153972Y0074130D01*
X0155139Y0075298D02*
X0154555Y0075881D01*
X0153388Y0075881D01*
X0152804Y0075298D01*
X0152804Y0072962D01*
X0153388Y0072378D01*
X0154555Y0072378D01*
X0160170Y0070668D02*
X0161922Y0070668D01*
X0162506Y0070084D01*
X0162506Y0067749D01*
X0161922Y0067165D01*
X0160170Y0067165D01*
X0160170Y0070668D01*
X0166309Y0072378D02*
X0168644Y0074714D01*
X0168644Y0075298D01*
X0168060Y0075881D01*
X0166893Y0075881D01*
X0166309Y0075298D01*
X0169992Y0074714D02*
X0171160Y0075881D01*
X0171160Y0072378D01*
X0172327Y0072378D02*
X0169992Y0072378D01*
X0168644Y0072378D02*
X0166309Y0072378D01*
X0165021Y0077592D02*
X0163853Y0077592D01*
X0164437Y0077592D02*
X0164437Y0081095D01*
X0163853Y0081095D02*
X0165021Y0081095D01*
X0164377Y0082805D02*
X0163210Y0082805D01*
X0162626Y0083389D01*
X0162626Y0085724D01*
X0163210Y0086308D01*
X0164377Y0086308D01*
X0164961Y0085724D01*
X0164961Y0083389D01*
X0164377Y0082805D01*
X0161278Y0085724D02*
X0160694Y0086308D01*
X0159526Y0086308D01*
X0158943Y0085724D01*
X0158239Y0088019D02*
X0157071Y0088019D01*
X0156487Y0088602D01*
X0156487Y0090938D01*
X0157071Y0091522D01*
X0158239Y0091522D01*
X0158822Y0090938D01*
X0160170Y0091522D02*
X0160170Y0088019D01*
X0160170Y0089186D02*
X0162506Y0091522D01*
X0161922Y0093232D02*
X0160754Y0093232D01*
X0160170Y0093816D01*
X0160170Y0096151D01*
X0160754Y0096735D01*
X0161922Y0096735D01*
X0162506Y0096151D01*
X0158822Y0096151D02*
X0158239Y0096735D01*
X0157071Y0096735D01*
X0156487Y0096151D01*
X0156487Y0093816D01*
X0157071Y0093232D01*
X0158239Y0093232D01*
X0158822Y0093816D01*
X0161922Y0093232D02*
X0162506Y0093816D01*
X0160754Y0089770D02*
X0162506Y0088019D01*
X0158822Y0088602D02*
X0158239Y0088019D01*
X0155139Y0090938D02*
X0154555Y0091522D01*
X0153388Y0091522D01*
X0152804Y0090938D01*
X0153972Y0093232D02*
X0155139Y0094400D01*
X0155139Y0096735D01*
X0152804Y0096735D02*
X0152804Y0094400D01*
X0153972Y0093232D01*
X0152804Y0086308D02*
X0152804Y0082805D01*
X0152804Y0081095D02*
X0153972Y0079927D01*
X0155139Y0081095D01*
X0155139Y0077592D01*
X0152804Y0077592D02*
X0152804Y0081095D01*
X0195178Y0062427D02*
X0195180Y0062474D01*
X0195186Y0062520D01*
X0195195Y0062566D01*
X0195209Y0062610D01*
X0195226Y0062654D01*
X0195247Y0062695D01*
X0195271Y0062735D01*
X0195298Y0062773D01*
X0195329Y0062808D01*
X0195362Y0062841D01*
X0195398Y0062871D01*
X0195437Y0062897D01*
X0195477Y0062921D01*
X0195519Y0062940D01*
X0195563Y0062957D01*
X0195608Y0062969D01*
X0195654Y0062978D01*
X0195700Y0062983D01*
X0195747Y0062984D01*
X0195793Y0062981D01*
X0195839Y0062974D01*
X0195885Y0062963D01*
X0195929Y0062949D01*
X0195972Y0062931D01*
X0196013Y0062909D01*
X0196053Y0062884D01*
X0196090Y0062856D01*
X0196125Y0062825D01*
X0196157Y0062791D01*
X0196186Y0062754D01*
X0196211Y0062716D01*
X0196234Y0062675D01*
X0196253Y0062632D01*
X0196268Y0062588D01*
X0196280Y0062543D01*
X0196288Y0062497D01*
X0196292Y0062450D01*
X0196292Y0062404D01*
X0196288Y0062357D01*
X0196280Y0062311D01*
X0196268Y0062266D01*
X0196253Y0062222D01*
X0196234Y0062179D01*
X0196211Y0062138D01*
X0196186Y0062100D01*
X0196157Y0062063D01*
X0196125Y0062029D01*
X0196090Y0061998D01*
X0196053Y0061970D01*
X0196014Y0061945D01*
X0195972Y0061923D01*
X0195929Y0061905D01*
X0195885Y0061891D01*
X0195839Y0061880D01*
X0195793Y0061873D01*
X0195747Y0061870D01*
X0195700Y0061871D01*
X0195654Y0061876D01*
X0195608Y0061885D01*
X0195563Y0061897D01*
X0195519Y0061914D01*
X0195477Y0061933D01*
X0195437Y0061957D01*
X0195398Y0061983D01*
X0195362Y0062013D01*
X0195329Y0062046D01*
X0195298Y0062081D01*
X0195271Y0062119D01*
X0195247Y0062159D01*
X0195226Y0062200D01*
X0195209Y0062244D01*
X0195195Y0062288D01*
X0195186Y0062334D01*
X0195180Y0062380D01*
X0195178Y0062427D01*
X0197443Y0061687D02*
X0201380Y0061687D01*
X0197443Y0057750D01*
X0197443Y0061687D01*
X0201380Y0061687D02*
X0217128Y0061687D01*
X0217128Y0042001D01*
X0197443Y0042001D01*
X0197443Y0057750D01*
X0199018Y0051844D02*
X0199020Y0052047D01*
X0199028Y0052250D01*
X0199040Y0052452D01*
X0199058Y0052654D01*
X0199080Y0052856D01*
X0199107Y0053057D01*
X0199140Y0053258D01*
X0199177Y0053457D01*
X0199219Y0053656D01*
X0199266Y0053853D01*
X0199317Y0054049D01*
X0199374Y0054244D01*
X0199435Y0054438D01*
X0199501Y0054629D01*
X0199572Y0054820D01*
X0199647Y0055008D01*
X0199727Y0055195D01*
X0199812Y0055379D01*
X0199901Y0055561D01*
X0199994Y0055742D01*
X0200092Y0055919D01*
X0200194Y0056095D01*
X0200301Y0056267D01*
X0200411Y0056437D01*
X0200526Y0056605D01*
X0200645Y0056769D01*
X0200768Y0056931D01*
X0200895Y0057089D01*
X0201025Y0057244D01*
X0201160Y0057396D01*
X0201298Y0057545D01*
X0201440Y0057690D01*
X0201585Y0057832D01*
X0201734Y0057970D01*
X0201886Y0058105D01*
X0202041Y0058235D01*
X0202199Y0058362D01*
X0202361Y0058485D01*
X0202525Y0058604D01*
X0202693Y0058719D01*
X0202863Y0058829D01*
X0203035Y0058936D01*
X0203211Y0059038D01*
X0203388Y0059136D01*
X0203569Y0059229D01*
X0203751Y0059318D01*
X0203935Y0059403D01*
X0204122Y0059483D01*
X0204310Y0059558D01*
X0204501Y0059629D01*
X0204692Y0059695D01*
X0204886Y0059756D01*
X0205081Y0059813D01*
X0205277Y0059864D01*
X0205474Y0059911D01*
X0205673Y0059953D01*
X0205872Y0059990D01*
X0206073Y0060023D01*
X0206274Y0060050D01*
X0206476Y0060072D01*
X0206678Y0060090D01*
X0206880Y0060102D01*
X0207083Y0060110D01*
X0207286Y0060112D01*
X0207489Y0060110D01*
X0207692Y0060102D01*
X0207894Y0060090D01*
X0208096Y0060072D01*
X0208298Y0060050D01*
X0208499Y0060023D01*
X0208700Y0059990D01*
X0208899Y0059953D01*
X0209098Y0059911D01*
X0209295Y0059864D01*
X0209491Y0059813D01*
X0209686Y0059756D01*
X0209880Y0059695D01*
X0210071Y0059629D01*
X0210262Y0059558D01*
X0210450Y0059483D01*
X0210637Y0059403D01*
X0210821Y0059318D01*
X0211003Y0059229D01*
X0211184Y0059136D01*
X0211361Y0059038D01*
X0211537Y0058936D01*
X0211709Y0058829D01*
X0211879Y0058719D01*
X0212047Y0058604D01*
X0212211Y0058485D01*
X0212373Y0058362D01*
X0212531Y0058235D01*
X0212686Y0058105D01*
X0212838Y0057970D01*
X0212987Y0057832D01*
X0213132Y0057690D01*
X0213274Y0057545D01*
X0213412Y0057396D01*
X0213547Y0057244D01*
X0213677Y0057089D01*
X0213804Y0056931D01*
X0213927Y0056769D01*
X0214046Y0056605D01*
X0214161Y0056437D01*
X0214271Y0056267D01*
X0214378Y0056095D01*
X0214480Y0055919D01*
X0214578Y0055742D01*
X0214671Y0055561D01*
X0214760Y0055379D01*
X0214845Y0055195D01*
X0214925Y0055008D01*
X0215000Y0054820D01*
X0215071Y0054629D01*
X0215137Y0054438D01*
X0215198Y0054244D01*
X0215255Y0054049D01*
X0215306Y0053853D01*
X0215353Y0053656D01*
X0215395Y0053457D01*
X0215432Y0053258D01*
X0215465Y0053057D01*
X0215492Y0052856D01*
X0215514Y0052654D01*
X0215532Y0052452D01*
X0215544Y0052250D01*
X0215552Y0052047D01*
X0215554Y0051844D01*
X0215552Y0051641D01*
X0215544Y0051438D01*
X0215532Y0051236D01*
X0215514Y0051034D01*
X0215492Y0050832D01*
X0215465Y0050631D01*
X0215432Y0050430D01*
X0215395Y0050231D01*
X0215353Y0050032D01*
X0215306Y0049835D01*
X0215255Y0049639D01*
X0215198Y0049444D01*
X0215137Y0049250D01*
X0215071Y0049059D01*
X0215000Y0048868D01*
X0214925Y0048680D01*
X0214845Y0048493D01*
X0214760Y0048309D01*
X0214671Y0048127D01*
X0214578Y0047946D01*
X0214480Y0047769D01*
X0214378Y0047593D01*
X0214271Y0047421D01*
X0214161Y0047251D01*
X0214046Y0047083D01*
X0213927Y0046919D01*
X0213804Y0046757D01*
X0213677Y0046599D01*
X0213547Y0046444D01*
X0213412Y0046292D01*
X0213274Y0046143D01*
X0213132Y0045998D01*
X0212987Y0045856D01*
X0212838Y0045718D01*
X0212686Y0045583D01*
X0212531Y0045453D01*
X0212373Y0045326D01*
X0212211Y0045203D01*
X0212047Y0045084D01*
X0211879Y0044969D01*
X0211709Y0044859D01*
X0211537Y0044752D01*
X0211361Y0044650D01*
X0211184Y0044552D01*
X0211003Y0044459D01*
X0210821Y0044370D01*
X0210637Y0044285D01*
X0210450Y0044205D01*
X0210262Y0044130D01*
X0210071Y0044059D01*
X0209880Y0043993D01*
X0209686Y0043932D01*
X0209491Y0043875D01*
X0209295Y0043824D01*
X0209098Y0043777D01*
X0208899Y0043735D01*
X0208700Y0043698D01*
X0208499Y0043665D01*
X0208298Y0043638D01*
X0208096Y0043616D01*
X0207894Y0043598D01*
X0207692Y0043586D01*
X0207489Y0043578D01*
X0207286Y0043576D01*
X0207083Y0043578D01*
X0206880Y0043586D01*
X0206678Y0043598D01*
X0206476Y0043616D01*
X0206274Y0043638D01*
X0206073Y0043665D01*
X0205872Y0043698D01*
X0205673Y0043735D01*
X0205474Y0043777D01*
X0205277Y0043824D01*
X0205081Y0043875D01*
X0204886Y0043932D01*
X0204692Y0043993D01*
X0204501Y0044059D01*
X0204310Y0044130D01*
X0204122Y0044205D01*
X0203935Y0044285D01*
X0203751Y0044370D01*
X0203569Y0044459D01*
X0203388Y0044552D01*
X0203211Y0044650D01*
X0203035Y0044752D01*
X0202863Y0044859D01*
X0202693Y0044969D01*
X0202525Y0045084D01*
X0202361Y0045203D01*
X0202199Y0045326D01*
X0202041Y0045453D01*
X0201886Y0045583D01*
X0201734Y0045718D01*
X0201585Y0045856D01*
X0201440Y0045998D01*
X0201298Y0046143D01*
X0201160Y0046292D01*
X0201025Y0046444D01*
X0200895Y0046599D01*
X0200768Y0046757D01*
X0200645Y0046919D01*
X0200526Y0047083D01*
X0200411Y0047251D01*
X0200301Y0047421D01*
X0200194Y0047593D01*
X0200092Y0047769D01*
X0199994Y0047946D01*
X0199901Y0048127D01*
X0199812Y0048309D01*
X0199727Y0048493D01*
X0199647Y0048680D01*
X0199572Y0048868D01*
X0199501Y0049059D01*
X0199435Y0049250D01*
X0199374Y0049444D01*
X0199317Y0049639D01*
X0199266Y0049835D01*
X0199219Y0050032D01*
X0199177Y0050231D01*
X0199140Y0050430D01*
X0199107Y0050631D01*
X0199080Y0050832D01*
X0199058Y0051034D01*
X0199040Y0051236D01*
X0199028Y0051438D01*
X0199020Y0051641D01*
X0199018Y0051844D01*
D13*
X0218338Y0065707D02*
X0218488Y0065705D01*
X0218637Y0065699D01*
X0218786Y0065690D01*
X0218935Y0065677D01*
X0219084Y0065660D01*
X0219232Y0065639D01*
X0219380Y0065614D01*
X0219527Y0065586D01*
X0219673Y0065554D01*
X0219818Y0065518D01*
X0219963Y0065479D01*
X0220106Y0065436D01*
X0220248Y0065390D01*
X0220389Y0065339D01*
X0220529Y0065286D01*
X0220667Y0065228D01*
X0220804Y0065168D01*
X0220939Y0065103D01*
X0221072Y0065036D01*
X0221204Y0064965D01*
X0221334Y0064891D01*
X0221462Y0064813D01*
X0221588Y0064732D01*
X0221712Y0064648D01*
X0221834Y0064561D01*
X0221953Y0064471D01*
X0222070Y0064378D01*
X0222185Y0064282D01*
X0222297Y0064183D01*
X0222407Y0064082D01*
X0222514Y0063977D01*
X0223355Y0063136D01*
X0227531Y0061406D02*
X0231966Y0061406D01*
X0227531Y0061405D02*
X0227381Y0061407D01*
X0227232Y0061413D01*
X0227083Y0061422D01*
X0226934Y0061435D01*
X0226785Y0061452D01*
X0226637Y0061473D01*
X0226489Y0061498D01*
X0226342Y0061526D01*
X0226196Y0061558D01*
X0226051Y0061594D01*
X0225906Y0061633D01*
X0225763Y0061676D01*
X0225621Y0061722D01*
X0225480Y0061773D01*
X0225340Y0061826D01*
X0225202Y0061884D01*
X0225065Y0061944D01*
X0224930Y0062009D01*
X0224797Y0062076D01*
X0224665Y0062147D01*
X0224535Y0062221D01*
X0224407Y0062299D01*
X0224281Y0062380D01*
X0224157Y0062464D01*
X0224035Y0062551D01*
X0223916Y0062641D01*
X0223799Y0062734D01*
X0223684Y0062830D01*
X0223572Y0062929D01*
X0223462Y0063030D01*
X0223355Y0063135D01*
X0218338Y0065707D02*
X0187879Y0065707D01*
X0183703Y0067437D02*
X0180738Y0070402D01*
X0176562Y0072132D02*
X0173156Y0072132D01*
X0173144Y0068561D02*
X0173144Y0094151D01*
X0173944Y0094152D02*
X0173944Y0087853D01*
X0173946Y0087729D01*
X0173952Y0087606D01*
X0173961Y0087482D01*
X0173975Y0087360D01*
X0173992Y0087237D01*
X0174014Y0087115D01*
X0174039Y0086994D01*
X0174068Y0086874D01*
X0174100Y0086755D01*
X0174137Y0086636D01*
X0174177Y0086519D01*
X0174220Y0086404D01*
X0174268Y0086289D01*
X0174319Y0086177D01*
X0174373Y0086066D01*
X0174431Y0085956D01*
X0174492Y0085849D01*
X0174557Y0085743D01*
X0174625Y0085640D01*
X0174696Y0085539D01*
X0174770Y0085440D01*
X0174847Y0085343D01*
X0174928Y0085249D01*
X0175011Y0085158D01*
X0175097Y0085069D01*
X0175186Y0084983D01*
X0175277Y0084900D01*
X0175371Y0084819D01*
X0175468Y0084742D01*
X0175567Y0084668D01*
X0175668Y0084597D01*
X0175771Y0084529D01*
X0175877Y0084464D01*
X0175984Y0084403D01*
X0176094Y0084345D01*
X0176205Y0084291D01*
X0176317Y0084240D01*
X0176432Y0084192D01*
X0176547Y0084149D01*
X0176664Y0084109D01*
X0176783Y0084072D01*
X0176902Y0084040D01*
X0177022Y0084011D01*
X0177143Y0083986D01*
X0177265Y0083964D01*
X0177388Y0083947D01*
X0177510Y0083933D01*
X0177634Y0083924D01*
X0177757Y0083918D01*
X0177881Y0083916D01*
X0182999Y0083916D01*
X0179875Y0083636D02*
X0179875Y0079597D01*
X0180871Y0077192D02*
X0180940Y0077126D01*
X0181011Y0077063D01*
X0181086Y0077002D01*
X0181162Y0076945D01*
X0181241Y0076891D01*
X0181322Y0076841D01*
X0181405Y0076794D01*
X0181490Y0076750D01*
X0181577Y0076710D01*
X0181665Y0076673D01*
X0181755Y0076640D01*
X0181846Y0076611D01*
X0181938Y0076586D01*
X0182031Y0076564D01*
X0182125Y0076547D01*
X0182219Y0076533D01*
X0182314Y0076523D01*
X0182410Y0076517D01*
X0182505Y0076515D01*
X0186920Y0076515D01*
X0180871Y0077192D02*
X0180794Y0077272D01*
X0180719Y0077355D01*
X0180647Y0077439D01*
X0180578Y0077527D01*
X0180512Y0077616D01*
X0180448Y0077708D01*
X0180388Y0077801D01*
X0180331Y0077896D01*
X0180277Y0077994D01*
X0180226Y0078093D01*
X0180178Y0078193D01*
X0180134Y0078295D01*
X0180093Y0078399D01*
X0180055Y0078504D01*
X0180021Y0078610D01*
X0179991Y0078717D01*
X0179964Y0078825D01*
X0179940Y0078933D01*
X0179920Y0079043D01*
X0179904Y0079153D01*
X0179891Y0079264D01*
X0179882Y0079375D01*
X0179877Y0079486D01*
X0179875Y0079597D01*
X0182999Y0083916D02*
X0183123Y0083918D01*
X0183246Y0083924D01*
X0183370Y0083933D01*
X0183492Y0083947D01*
X0183615Y0083964D01*
X0183737Y0083986D01*
X0183858Y0084011D01*
X0183978Y0084040D01*
X0184097Y0084072D01*
X0184216Y0084109D01*
X0184333Y0084149D01*
X0184448Y0084192D01*
X0184563Y0084240D01*
X0184675Y0084291D01*
X0184786Y0084345D01*
X0184896Y0084403D01*
X0185003Y0084464D01*
X0185109Y0084529D01*
X0185212Y0084597D01*
X0185313Y0084668D01*
X0185412Y0084742D01*
X0185509Y0084819D01*
X0185603Y0084900D01*
X0185694Y0084983D01*
X0185783Y0085069D01*
X0185869Y0085158D01*
X0185952Y0085249D01*
X0186033Y0085343D01*
X0186110Y0085440D01*
X0186184Y0085539D01*
X0186255Y0085640D01*
X0186323Y0085743D01*
X0186388Y0085849D01*
X0186449Y0085956D01*
X0186507Y0086066D01*
X0186561Y0086177D01*
X0186612Y0086289D01*
X0186660Y0086404D01*
X0186703Y0086519D01*
X0186743Y0086636D01*
X0186780Y0086755D01*
X0186812Y0086874D01*
X0186841Y0086994D01*
X0186866Y0087115D01*
X0186888Y0087237D01*
X0186905Y0087360D01*
X0186919Y0087482D01*
X0186928Y0087606D01*
X0186934Y0087729D01*
X0186936Y0087853D01*
X0186936Y0094152D01*
X0186934Y0094276D01*
X0186928Y0094399D01*
X0186919Y0094523D01*
X0186905Y0094645D01*
X0186888Y0094768D01*
X0186866Y0094890D01*
X0186841Y0095011D01*
X0186812Y0095131D01*
X0186780Y0095250D01*
X0186743Y0095369D01*
X0186703Y0095486D01*
X0186660Y0095601D01*
X0186612Y0095716D01*
X0186561Y0095828D01*
X0186507Y0095939D01*
X0186449Y0096049D01*
X0186388Y0096156D01*
X0186323Y0096262D01*
X0186255Y0096365D01*
X0186184Y0096466D01*
X0186110Y0096565D01*
X0186033Y0096662D01*
X0185952Y0096756D01*
X0185869Y0096847D01*
X0185783Y0096936D01*
X0185694Y0097022D01*
X0185603Y0097105D01*
X0185509Y0097186D01*
X0185412Y0097263D01*
X0185313Y0097337D01*
X0185212Y0097408D01*
X0185109Y0097476D01*
X0185003Y0097541D01*
X0184896Y0097602D01*
X0184786Y0097660D01*
X0184675Y0097714D01*
X0184563Y0097765D01*
X0184448Y0097813D01*
X0184333Y0097856D01*
X0184216Y0097896D01*
X0184097Y0097933D01*
X0183978Y0097965D01*
X0183858Y0097994D01*
X0183737Y0098019D01*
X0183615Y0098041D01*
X0183492Y0098058D01*
X0183370Y0098072D01*
X0183246Y0098081D01*
X0183123Y0098087D01*
X0182999Y0098089D01*
X0177881Y0098089D01*
X0177757Y0098087D01*
X0177634Y0098081D01*
X0177510Y0098072D01*
X0177388Y0098058D01*
X0177265Y0098041D01*
X0177143Y0098019D01*
X0177022Y0097994D01*
X0176902Y0097965D01*
X0176783Y0097933D01*
X0176664Y0097896D01*
X0176547Y0097856D01*
X0176432Y0097813D01*
X0176317Y0097765D01*
X0176205Y0097714D01*
X0176094Y0097660D01*
X0175984Y0097602D01*
X0175877Y0097541D01*
X0175771Y0097476D01*
X0175668Y0097408D01*
X0175567Y0097337D01*
X0175468Y0097263D01*
X0175371Y0097186D01*
X0175277Y0097105D01*
X0175186Y0097022D01*
X0175097Y0096936D01*
X0175011Y0096847D01*
X0174928Y0096756D01*
X0174847Y0096662D01*
X0174770Y0096565D01*
X0174696Y0096466D01*
X0174625Y0096365D01*
X0174557Y0096262D01*
X0174492Y0096156D01*
X0174431Y0096049D01*
X0174373Y0095939D01*
X0174319Y0095828D01*
X0174268Y0095716D01*
X0174220Y0095601D01*
X0174177Y0095486D01*
X0174137Y0095369D01*
X0174100Y0095250D01*
X0174068Y0095131D01*
X0174039Y0095011D01*
X0174014Y0094890D01*
X0173992Y0094768D01*
X0173975Y0094645D01*
X0173961Y0094523D01*
X0173952Y0094399D01*
X0173946Y0094276D01*
X0173944Y0094152D01*
X0173144Y0094151D02*
X0173142Y0094275D01*
X0173136Y0094398D01*
X0173127Y0094522D01*
X0173113Y0094644D01*
X0173096Y0094767D01*
X0173074Y0094889D01*
X0173049Y0095010D01*
X0173020Y0095130D01*
X0172988Y0095249D01*
X0172951Y0095368D01*
X0172911Y0095485D01*
X0172868Y0095600D01*
X0172820Y0095715D01*
X0172769Y0095827D01*
X0172715Y0095938D01*
X0172657Y0096048D01*
X0172596Y0096155D01*
X0172531Y0096261D01*
X0172463Y0096364D01*
X0172392Y0096465D01*
X0172318Y0096564D01*
X0172241Y0096661D01*
X0172160Y0096755D01*
X0172077Y0096846D01*
X0171991Y0096935D01*
X0171902Y0097021D01*
X0171811Y0097104D01*
X0171717Y0097185D01*
X0171620Y0097262D01*
X0171521Y0097336D01*
X0171420Y0097407D01*
X0171317Y0097475D01*
X0171211Y0097540D01*
X0171104Y0097601D01*
X0170994Y0097659D01*
X0170883Y0097713D01*
X0170771Y0097764D01*
X0170656Y0097812D01*
X0170541Y0097855D01*
X0170424Y0097895D01*
X0170305Y0097932D01*
X0170186Y0097964D01*
X0170066Y0097993D01*
X0169945Y0098018D01*
X0169823Y0098040D01*
X0169700Y0098057D01*
X0169578Y0098071D01*
X0169454Y0098080D01*
X0169331Y0098086D01*
X0169207Y0098088D01*
X0154247Y0098088D01*
X0154123Y0098086D01*
X0154000Y0098080D01*
X0153876Y0098071D01*
X0153754Y0098057D01*
X0153631Y0098040D01*
X0153509Y0098018D01*
X0153388Y0097993D01*
X0153268Y0097964D01*
X0153149Y0097932D01*
X0153030Y0097895D01*
X0152913Y0097855D01*
X0152798Y0097812D01*
X0152683Y0097764D01*
X0152571Y0097713D01*
X0152460Y0097659D01*
X0152350Y0097601D01*
X0152243Y0097540D01*
X0152137Y0097475D01*
X0152034Y0097407D01*
X0151933Y0097336D01*
X0151834Y0097262D01*
X0151737Y0097185D01*
X0151643Y0097104D01*
X0151552Y0097021D01*
X0151463Y0096935D01*
X0151377Y0096846D01*
X0151294Y0096755D01*
X0151213Y0096661D01*
X0151136Y0096564D01*
X0151062Y0096465D01*
X0150991Y0096364D01*
X0150923Y0096261D01*
X0150858Y0096155D01*
X0150797Y0096048D01*
X0150739Y0095938D01*
X0150685Y0095827D01*
X0150634Y0095715D01*
X0150586Y0095600D01*
X0150543Y0095485D01*
X0150503Y0095368D01*
X0150466Y0095249D01*
X0150434Y0095130D01*
X0150405Y0095010D01*
X0150380Y0094889D01*
X0150358Y0094767D01*
X0150341Y0094644D01*
X0150327Y0094522D01*
X0150318Y0094398D01*
X0150312Y0094275D01*
X0150310Y0094151D01*
X0150310Y0068561D01*
X0150312Y0068437D01*
X0150318Y0068314D01*
X0150327Y0068190D01*
X0150341Y0068068D01*
X0150358Y0067945D01*
X0150380Y0067823D01*
X0150405Y0067702D01*
X0150434Y0067582D01*
X0150466Y0067463D01*
X0150503Y0067344D01*
X0150543Y0067227D01*
X0150586Y0067112D01*
X0150634Y0066997D01*
X0150685Y0066885D01*
X0150739Y0066774D01*
X0150797Y0066664D01*
X0150858Y0066557D01*
X0150923Y0066451D01*
X0150991Y0066348D01*
X0151062Y0066247D01*
X0151136Y0066148D01*
X0151213Y0066051D01*
X0151294Y0065957D01*
X0151377Y0065866D01*
X0151463Y0065777D01*
X0151552Y0065691D01*
X0151643Y0065608D01*
X0151737Y0065527D01*
X0151834Y0065450D01*
X0151933Y0065376D01*
X0152034Y0065305D01*
X0152137Y0065237D01*
X0152243Y0065172D01*
X0152350Y0065111D01*
X0152460Y0065053D01*
X0152571Y0064999D01*
X0152683Y0064948D01*
X0152798Y0064900D01*
X0152913Y0064857D01*
X0153030Y0064817D01*
X0153149Y0064780D01*
X0153268Y0064748D01*
X0153388Y0064719D01*
X0153509Y0064694D01*
X0153631Y0064672D01*
X0153754Y0064655D01*
X0153876Y0064641D01*
X0154000Y0064632D01*
X0154123Y0064626D01*
X0154247Y0064624D01*
X0169207Y0064624D01*
X0176562Y0072132D02*
X0176712Y0072130D01*
X0176861Y0072124D01*
X0177010Y0072115D01*
X0177159Y0072102D01*
X0177308Y0072085D01*
X0177456Y0072064D01*
X0177604Y0072039D01*
X0177751Y0072011D01*
X0177897Y0071979D01*
X0178042Y0071943D01*
X0178187Y0071904D01*
X0178330Y0071861D01*
X0178472Y0071815D01*
X0178613Y0071764D01*
X0178753Y0071711D01*
X0178891Y0071653D01*
X0179028Y0071593D01*
X0179163Y0071528D01*
X0179296Y0071461D01*
X0179428Y0071390D01*
X0179558Y0071316D01*
X0179686Y0071238D01*
X0179812Y0071157D01*
X0179936Y0071073D01*
X0180058Y0070986D01*
X0180177Y0070896D01*
X0180294Y0070803D01*
X0180409Y0070707D01*
X0180521Y0070608D01*
X0180631Y0070507D01*
X0180738Y0070402D01*
X0183703Y0067437D02*
X0183810Y0067332D01*
X0183920Y0067231D01*
X0184032Y0067132D01*
X0184147Y0067036D01*
X0184264Y0066943D01*
X0184383Y0066853D01*
X0184505Y0066766D01*
X0184629Y0066682D01*
X0184755Y0066601D01*
X0184883Y0066523D01*
X0185013Y0066449D01*
X0185145Y0066378D01*
X0185278Y0066311D01*
X0185413Y0066246D01*
X0185550Y0066186D01*
X0185688Y0066128D01*
X0185828Y0066075D01*
X0185969Y0066024D01*
X0186111Y0065978D01*
X0186254Y0065935D01*
X0186399Y0065896D01*
X0186544Y0065860D01*
X0186690Y0065828D01*
X0186837Y0065800D01*
X0186985Y0065775D01*
X0187133Y0065754D01*
X0187282Y0065737D01*
X0187431Y0065724D01*
X0187580Y0065715D01*
X0187729Y0065709D01*
X0187879Y0065707D01*
X0173144Y0068561D02*
X0173142Y0068437D01*
X0173136Y0068314D01*
X0173127Y0068190D01*
X0173113Y0068068D01*
X0173096Y0067945D01*
X0173074Y0067823D01*
X0173049Y0067702D01*
X0173020Y0067582D01*
X0172988Y0067463D01*
X0172951Y0067344D01*
X0172911Y0067227D01*
X0172868Y0067112D01*
X0172820Y0066997D01*
X0172769Y0066885D01*
X0172715Y0066774D01*
X0172657Y0066664D01*
X0172596Y0066557D01*
X0172531Y0066451D01*
X0172463Y0066348D01*
X0172392Y0066247D01*
X0172318Y0066148D01*
X0172241Y0066051D01*
X0172160Y0065957D01*
X0172077Y0065866D01*
X0171991Y0065777D01*
X0171902Y0065691D01*
X0171811Y0065608D01*
X0171717Y0065527D01*
X0171620Y0065450D01*
X0171521Y0065376D01*
X0171420Y0065305D01*
X0171317Y0065237D01*
X0171211Y0065172D01*
X0171104Y0065111D01*
X0170994Y0065053D01*
X0170883Y0064999D01*
X0170771Y0064948D01*
X0170656Y0064900D01*
X0170541Y0064857D01*
X0170424Y0064817D01*
X0170305Y0064780D01*
X0170186Y0064748D01*
X0170066Y0064719D01*
X0169945Y0064694D01*
X0169823Y0064672D01*
X0169700Y0064655D01*
X0169578Y0064641D01*
X0169454Y0064632D01*
X0169331Y0064626D01*
X0169207Y0064624D01*
X0145585Y0074860D02*
X0137711Y0074860D01*
X0138192Y0074808D02*
X0138192Y0048204D01*
X0139345Y0045420D02*
X0145508Y0039257D01*
X0148292Y0038104D02*
X0180359Y0038104D01*
X0183143Y0036951D02*
X0184844Y0035250D01*
X0184817Y0035250D01*
X0183143Y0036951D02*
X0183054Y0037037D01*
X0182963Y0037120D01*
X0182869Y0037201D01*
X0182772Y0037278D01*
X0182673Y0037352D01*
X0182572Y0037423D01*
X0182469Y0037491D01*
X0182363Y0037556D01*
X0182256Y0037617D01*
X0182146Y0037675D01*
X0182035Y0037729D01*
X0181923Y0037780D01*
X0181808Y0037828D01*
X0181693Y0037871D01*
X0181576Y0037911D01*
X0181457Y0037948D01*
X0181338Y0037980D01*
X0181218Y0038009D01*
X0181097Y0038034D01*
X0180975Y0038056D01*
X0180852Y0038073D01*
X0180730Y0038087D01*
X0180606Y0038096D01*
X0180483Y0038102D01*
X0180359Y0038104D01*
X0148292Y0038104D02*
X0148168Y0038106D01*
X0148045Y0038112D01*
X0147921Y0038121D01*
X0147799Y0038135D01*
X0147676Y0038152D01*
X0147554Y0038174D01*
X0147433Y0038199D01*
X0147313Y0038228D01*
X0147194Y0038260D01*
X0147075Y0038297D01*
X0146958Y0038337D01*
X0146843Y0038380D01*
X0146728Y0038428D01*
X0146616Y0038479D01*
X0146505Y0038533D01*
X0146395Y0038591D01*
X0146288Y0038652D01*
X0146182Y0038717D01*
X0146079Y0038785D01*
X0145978Y0038856D01*
X0145879Y0038930D01*
X0145782Y0039007D01*
X0145688Y0039088D01*
X0145597Y0039171D01*
X0145508Y0039257D01*
X0135872Y0035335D02*
X0129965Y0041242D01*
X0128812Y0044026D02*
X0128812Y0074826D01*
X0129050Y0074860D02*
X0120782Y0074860D01*
X0120658Y0074862D01*
X0120535Y0074868D01*
X0120411Y0074877D01*
X0120289Y0074891D01*
X0120166Y0074908D01*
X0120044Y0074930D01*
X0119923Y0074955D01*
X0119803Y0074984D01*
X0119684Y0075016D01*
X0119565Y0075053D01*
X0119448Y0075093D01*
X0119333Y0075136D01*
X0119218Y0075184D01*
X0119106Y0075235D01*
X0118995Y0075289D01*
X0118885Y0075347D01*
X0118778Y0075408D01*
X0118672Y0075473D01*
X0118569Y0075541D01*
X0118468Y0075612D01*
X0118369Y0075686D01*
X0118272Y0075763D01*
X0118178Y0075844D01*
X0118087Y0075927D01*
X0117998Y0076013D01*
X0117912Y0076102D01*
X0117829Y0076193D01*
X0117748Y0076287D01*
X0117671Y0076384D01*
X0117597Y0076483D01*
X0117526Y0076584D01*
X0117458Y0076687D01*
X0117393Y0076793D01*
X0117332Y0076900D01*
X0117274Y0077010D01*
X0117220Y0077121D01*
X0117169Y0077233D01*
X0117121Y0077348D01*
X0117078Y0077463D01*
X0117038Y0077580D01*
X0117001Y0077699D01*
X0116969Y0077818D01*
X0116940Y0077938D01*
X0116915Y0078059D01*
X0116893Y0078181D01*
X0116876Y0078304D01*
X0116862Y0078426D01*
X0116853Y0078550D01*
X0116847Y0078673D01*
X0116845Y0078797D01*
X0116845Y0094151D01*
X0116847Y0094275D01*
X0116853Y0094398D01*
X0116862Y0094522D01*
X0116876Y0094644D01*
X0116893Y0094767D01*
X0116915Y0094889D01*
X0116940Y0095010D01*
X0116969Y0095130D01*
X0117001Y0095249D01*
X0117038Y0095368D01*
X0117078Y0095485D01*
X0117121Y0095600D01*
X0117169Y0095715D01*
X0117220Y0095827D01*
X0117274Y0095938D01*
X0117332Y0096048D01*
X0117393Y0096155D01*
X0117458Y0096261D01*
X0117526Y0096364D01*
X0117597Y0096465D01*
X0117671Y0096564D01*
X0117748Y0096661D01*
X0117829Y0096755D01*
X0117912Y0096846D01*
X0117998Y0096935D01*
X0118087Y0097021D01*
X0118178Y0097104D01*
X0118272Y0097185D01*
X0118369Y0097262D01*
X0118468Y0097336D01*
X0118569Y0097407D01*
X0118672Y0097475D01*
X0118778Y0097540D01*
X0118885Y0097601D01*
X0118995Y0097659D01*
X0119106Y0097713D01*
X0119218Y0097764D01*
X0119333Y0097812D01*
X0119448Y0097855D01*
X0119565Y0097895D01*
X0119684Y0097932D01*
X0119803Y0097964D01*
X0119923Y0097993D01*
X0120044Y0098018D01*
X0120166Y0098040D01*
X0120289Y0098057D01*
X0120411Y0098071D01*
X0120535Y0098080D01*
X0120658Y0098086D01*
X0120782Y0098088D01*
X0129050Y0098088D01*
X0129174Y0098086D01*
X0129297Y0098080D01*
X0129421Y0098071D01*
X0129543Y0098057D01*
X0129666Y0098040D01*
X0129788Y0098018D01*
X0129909Y0097993D01*
X0130029Y0097964D01*
X0130148Y0097932D01*
X0130267Y0097895D01*
X0130384Y0097855D01*
X0130499Y0097812D01*
X0130614Y0097764D01*
X0130726Y0097713D01*
X0130837Y0097659D01*
X0130947Y0097601D01*
X0131054Y0097540D01*
X0131160Y0097475D01*
X0131263Y0097407D01*
X0131364Y0097336D01*
X0131463Y0097262D01*
X0131560Y0097185D01*
X0131654Y0097104D01*
X0131745Y0097021D01*
X0131834Y0096935D01*
X0131920Y0096846D01*
X0132003Y0096755D01*
X0132084Y0096661D01*
X0132161Y0096564D01*
X0132235Y0096465D01*
X0132306Y0096364D01*
X0132374Y0096261D01*
X0132439Y0096155D01*
X0132500Y0096048D01*
X0132558Y0095938D01*
X0132612Y0095827D01*
X0132663Y0095715D01*
X0132711Y0095600D01*
X0132754Y0095485D01*
X0132794Y0095368D01*
X0132831Y0095249D01*
X0132863Y0095130D01*
X0132892Y0095010D01*
X0132917Y0094889D01*
X0132939Y0094767D01*
X0132956Y0094644D01*
X0132970Y0094522D01*
X0132979Y0094398D01*
X0132985Y0094275D01*
X0132987Y0094151D01*
X0132987Y0078797D01*
X0133774Y0078797D02*
X0133774Y0094151D01*
X0133776Y0094275D01*
X0133782Y0094398D01*
X0133791Y0094522D01*
X0133805Y0094644D01*
X0133822Y0094767D01*
X0133844Y0094889D01*
X0133869Y0095010D01*
X0133898Y0095130D01*
X0133930Y0095249D01*
X0133967Y0095368D01*
X0134007Y0095485D01*
X0134050Y0095600D01*
X0134098Y0095715D01*
X0134149Y0095827D01*
X0134203Y0095938D01*
X0134261Y0096048D01*
X0134322Y0096155D01*
X0134387Y0096261D01*
X0134455Y0096364D01*
X0134526Y0096465D01*
X0134600Y0096564D01*
X0134677Y0096661D01*
X0134758Y0096755D01*
X0134841Y0096846D01*
X0134927Y0096935D01*
X0135016Y0097021D01*
X0135107Y0097104D01*
X0135201Y0097185D01*
X0135298Y0097262D01*
X0135397Y0097336D01*
X0135498Y0097407D01*
X0135601Y0097475D01*
X0135707Y0097540D01*
X0135814Y0097601D01*
X0135924Y0097659D01*
X0136035Y0097713D01*
X0136147Y0097764D01*
X0136262Y0097812D01*
X0136377Y0097855D01*
X0136494Y0097895D01*
X0136613Y0097932D01*
X0136732Y0097964D01*
X0136852Y0097993D01*
X0136973Y0098018D01*
X0137095Y0098040D01*
X0137218Y0098057D01*
X0137340Y0098071D01*
X0137464Y0098080D01*
X0137587Y0098086D01*
X0137711Y0098088D01*
X0145585Y0098088D01*
X0145709Y0098086D01*
X0145832Y0098080D01*
X0145956Y0098071D01*
X0146078Y0098057D01*
X0146201Y0098040D01*
X0146323Y0098018D01*
X0146444Y0097993D01*
X0146564Y0097964D01*
X0146683Y0097932D01*
X0146802Y0097895D01*
X0146919Y0097855D01*
X0147034Y0097812D01*
X0147149Y0097764D01*
X0147261Y0097713D01*
X0147372Y0097659D01*
X0147482Y0097601D01*
X0147589Y0097540D01*
X0147695Y0097475D01*
X0147798Y0097407D01*
X0147899Y0097336D01*
X0147998Y0097262D01*
X0148095Y0097185D01*
X0148189Y0097104D01*
X0148280Y0097021D01*
X0148369Y0096935D01*
X0148455Y0096846D01*
X0148538Y0096755D01*
X0148619Y0096661D01*
X0148696Y0096564D01*
X0148770Y0096465D01*
X0148841Y0096364D01*
X0148909Y0096261D01*
X0148974Y0096155D01*
X0149035Y0096048D01*
X0149093Y0095938D01*
X0149147Y0095827D01*
X0149198Y0095715D01*
X0149246Y0095600D01*
X0149289Y0095485D01*
X0149329Y0095368D01*
X0149366Y0095249D01*
X0149398Y0095130D01*
X0149427Y0095010D01*
X0149452Y0094889D01*
X0149474Y0094767D01*
X0149491Y0094644D01*
X0149505Y0094522D01*
X0149514Y0094398D01*
X0149520Y0094275D01*
X0149522Y0094151D01*
X0149522Y0078797D01*
X0149520Y0078673D01*
X0149514Y0078550D01*
X0149505Y0078426D01*
X0149491Y0078304D01*
X0149474Y0078181D01*
X0149452Y0078059D01*
X0149427Y0077938D01*
X0149398Y0077818D01*
X0149366Y0077699D01*
X0149329Y0077580D01*
X0149289Y0077463D01*
X0149246Y0077348D01*
X0149198Y0077233D01*
X0149147Y0077121D01*
X0149093Y0077010D01*
X0149035Y0076900D01*
X0148974Y0076793D01*
X0148909Y0076687D01*
X0148841Y0076584D01*
X0148770Y0076483D01*
X0148696Y0076384D01*
X0148619Y0076287D01*
X0148538Y0076193D01*
X0148455Y0076102D01*
X0148369Y0076013D01*
X0148280Y0075927D01*
X0148189Y0075844D01*
X0148095Y0075763D01*
X0147998Y0075686D01*
X0147899Y0075612D01*
X0147798Y0075541D01*
X0147695Y0075473D01*
X0147589Y0075408D01*
X0147482Y0075347D01*
X0147372Y0075289D01*
X0147261Y0075235D01*
X0147149Y0075184D01*
X0147034Y0075136D01*
X0146919Y0075093D01*
X0146802Y0075053D01*
X0146683Y0075016D01*
X0146564Y0074984D01*
X0146444Y0074955D01*
X0146323Y0074930D01*
X0146201Y0074908D01*
X0146078Y0074891D01*
X0145956Y0074877D01*
X0145832Y0074868D01*
X0145709Y0074862D01*
X0145585Y0074860D01*
X0137711Y0074860D02*
X0137587Y0074862D01*
X0137464Y0074868D01*
X0137340Y0074877D01*
X0137218Y0074891D01*
X0137095Y0074908D01*
X0136973Y0074930D01*
X0136852Y0074955D01*
X0136732Y0074984D01*
X0136613Y0075016D01*
X0136494Y0075053D01*
X0136377Y0075093D01*
X0136262Y0075136D01*
X0136147Y0075184D01*
X0136035Y0075235D01*
X0135924Y0075289D01*
X0135814Y0075347D01*
X0135707Y0075408D01*
X0135601Y0075473D01*
X0135498Y0075541D01*
X0135397Y0075612D01*
X0135298Y0075686D01*
X0135201Y0075763D01*
X0135107Y0075844D01*
X0135016Y0075927D01*
X0134927Y0076013D01*
X0134841Y0076102D01*
X0134758Y0076193D01*
X0134677Y0076287D01*
X0134600Y0076384D01*
X0134526Y0076483D01*
X0134455Y0076584D01*
X0134387Y0076687D01*
X0134322Y0076793D01*
X0134261Y0076900D01*
X0134203Y0077010D01*
X0134149Y0077121D01*
X0134098Y0077233D01*
X0134050Y0077348D01*
X0134007Y0077463D01*
X0133967Y0077580D01*
X0133930Y0077699D01*
X0133898Y0077818D01*
X0133869Y0077938D01*
X0133844Y0078059D01*
X0133822Y0078181D01*
X0133805Y0078304D01*
X0133791Y0078426D01*
X0133782Y0078550D01*
X0133776Y0078673D01*
X0133774Y0078797D01*
X0132987Y0078797D02*
X0132985Y0078673D01*
X0132979Y0078550D01*
X0132970Y0078426D01*
X0132956Y0078304D01*
X0132939Y0078181D01*
X0132917Y0078059D01*
X0132892Y0077938D01*
X0132863Y0077818D01*
X0132831Y0077699D01*
X0132794Y0077580D01*
X0132754Y0077463D01*
X0132711Y0077348D01*
X0132663Y0077233D01*
X0132612Y0077121D01*
X0132558Y0077010D01*
X0132500Y0076900D01*
X0132439Y0076793D01*
X0132374Y0076687D01*
X0132306Y0076584D01*
X0132235Y0076483D01*
X0132161Y0076384D01*
X0132084Y0076287D01*
X0132003Y0076193D01*
X0131920Y0076102D01*
X0131834Y0076013D01*
X0131745Y0075927D01*
X0131654Y0075844D01*
X0131560Y0075763D01*
X0131463Y0075686D01*
X0131364Y0075612D01*
X0131263Y0075541D01*
X0131160Y0075473D01*
X0131054Y0075408D01*
X0130947Y0075347D01*
X0130837Y0075289D01*
X0130726Y0075235D01*
X0130614Y0075184D01*
X0130499Y0075136D01*
X0130384Y0075093D01*
X0130267Y0075053D01*
X0130148Y0075016D01*
X0130029Y0074984D01*
X0129909Y0074955D01*
X0129788Y0074930D01*
X0129666Y0074908D01*
X0129543Y0074891D01*
X0129421Y0074877D01*
X0129297Y0074868D01*
X0129174Y0074862D01*
X0129050Y0074860D01*
X0078826Y0076635D02*
X0077025Y0074833D01*
X0077025Y0074383D01*
X0076064Y0074383D02*
X0075163Y0075284D01*
X0075614Y0075284D02*
X0074262Y0075284D01*
X0074262Y0074383D02*
X0074262Y0077085D01*
X0075614Y0077085D01*
X0076064Y0076635D01*
X0076064Y0075734D01*
X0075614Y0075284D01*
X0078826Y0076635D02*
X0078826Y0077085D01*
X0077025Y0077085D01*
X0070026Y0074464D02*
X0068224Y0074464D01*
X0069125Y0074464D02*
X0069125Y0077166D01*
X0068224Y0076266D01*
X0067263Y0076716D02*
X0066813Y0077166D01*
X0065912Y0077166D01*
X0065462Y0076716D01*
X0065462Y0074915D01*
X0065912Y0074464D01*
X0066813Y0074464D01*
X0067263Y0074915D01*
X0068898Y0067021D02*
X0069799Y0067021D01*
X0069348Y0067021D02*
X0069348Y0064319D01*
X0068898Y0064319D02*
X0069799Y0064319D01*
X0070740Y0064769D02*
X0071190Y0064319D01*
X0072091Y0064319D01*
X0072541Y0064769D01*
X0073502Y0064319D02*
X0075303Y0064319D01*
X0074403Y0064319D02*
X0074403Y0067021D01*
X0073502Y0066121D01*
X0072541Y0066571D02*
X0072091Y0067021D01*
X0071190Y0067021D01*
X0070740Y0066571D01*
X0070740Y0064769D01*
X0035939Y0052649D02*
X0035038Y0051748D01*
X0035038Y0052199D02*
X0035038Y0050848D01*
X0035939Y0050848D02*
X0033237Y0050848D01*
X0033237Y0052199D01*
X0033687Y0052649D01*
X0034588Y0052649D01*
X0035038Y0052199D01*
X0035939Y0049887D02*
X0035939Y0048085D01*
X0033237Y0048085D01*
X0033237Y0049887D01*
X0034588Y0048986D02*
X0034588Y0048085D01*
X0035939Y0047124D02*
X0033237Y0047124D01*
X0033237Y0045323D02*
X0035939Y0045323D01*
X0035038Y0046224D01*
X0035939Y0047124D01*
X0035489Y0044362D02*
X0033687Y0044362D01*
X0033237Y0043912D01*
X0033237Y0043011D01*
X0033687Y0042561D01*
X0035489Y0042561D01*
X0035939Y0043011D01*
X0035939Y0043912D01*
X0035489Y0044362D01*
X0034588Y0041600D02*
X0035038Y0041149D01*
X0035038Y0039798D01*
X0035939Y0039798D02*
X0033237Y0039798D01*
X0033237Y0041149D01*
X0033687Y0041600D01*
X0034588Y0041600D01*
X0128812Y0044026D02*
X0128814Y0043902D01*
X0128820Y0043779D01*
X0128829Y0043655D01*
X0128843Y0043533D01*
X0128860Y0043410D01*
X0128882Y0043288D01*
X0128907Y0043167D01*
X0128936Y0043047D01*
X0128968Y0042928D01*
X0129005Y0042809D01*
X0129045Y0042692D01*
X0129088Y0042577D01*
X0129136Y0042462D01*
X0129187Y0042350D01*
X0129241Y0042239D01*
X0129299Y0042129D01*
X0129360Y0042022D01*
X0129425Y0041916D01*
X0129493Y0041813D01*
X0129564Y0041712D01*
X0129638Y0041613D01*
X0129715Y0041516D01*
X0129796Y0041422D01*
X0129879Y0041331D01*
X0129965Y0041242D01*
X0139345Y0045420D02*
X0139259Y0045509D01*
X0139176Y0045600D01*
X0139095Y0045694D01*
X0139018Y0045791D01*
X0138944Y0045890D01*
X0138873Y0045991D01*
X0138805Y0046094D01*
X0138740Y0046200D01*
X0138679Y0046307D01*
X0138621Y0046417D01*
X0138567Y0046528D01*
X0138516Y0046640D01*
X0138468Y0046755D01*
X0138425Y0046870D01*
X0138385Y0046987D01*
X0138348Y0047106D01*
X0138316Y0047225D01*
X0138287Y0047345D01*
X0138262Y0047466D01*
X0138240Y0047588D01*
X0138223Y0047711D01*
X0138209Y0047833D01*
X0138200Y0047957D01*
X0138194Y0048080D01*
X0138192Y0048204D01*
X0063037Y0096346D02*
X0062586Y0095896D01*
X0061686Y0095896D01*
X0061235Y0096346D01*
X0060275Y0096346D02*
X0059824Y0095896D01*
X0058923Y0095896D01*
X0058473Y0096346D01*
X0058473Y0098148D01*
X0058923Y0098598D01*
X0059824Y0098598D01*
X0060275Y0098148D01*
X0061235Y0098148D02*
X0061686Y0098598D01*
X0062586Y0098598D01*
X0063037Y0098148D01*
X0063037Y0097698D01*
X0062586Y0097247D01*
X0063037Y0096797D01*
X0063037Y0096346D01*
X0062586Y0097247D02*
X0062136Y0097247D01*
X0029697Y0098519D02*
X0029080Y0097902D01*
X0027845Y0097902D01*
X0027228Y0098519D01*
X0027845Y0099754D02*
X0029080Y0099754D01*
X0029697Y0099136D01*
X0029697Y0098519D01*
X0027845Y0099754D02*
X0027228Y0100371D01*
X0027228Y0100988D01*
X0027845Y0101605D01*
X0029080Y0101605D01*
X0029697Y0100988D01*
D14*
X0089898Y0089181D02*
X0089898Y0087780D01*
X0092700Y0087780D01*
X0092700Y0089181D01*
X0092233Y0089648D01*
X0090365Y0089648D01*
X0089898Y0089181D01*
X0089898Y0086886D02*
X0089898Y0085018D01*
X0092700Y0085018D01*
X0092700Y0086886D01*
X0091299Y0085952D02*
X0091299Y0085018D01*
X0092700Y0084124D02*
X0092700Y0082255D01*
X0089898Y0082255D01*
X0075248Y0062023D02*
X0115248Y0062023D01*
X0159948Y0061217D02*
X0159948Y0058415D01*
X0159948Y0059349D02*
X0161349Y0059349D01*
X0161816Y0059816D01*
X0161816Y0060750D01*
X0161349Y0061217D01*
X0159948Y0061217D01*
X0162710Y0060283D02*
X0163644Y0061217D01*
X0163644Y0058415D01*
X0162710Y0058415D02*
X0164579Y0058415D01*
X0165473Y0058882D02*
X0165940Y0058415D01*
X0166874Y0058415D01*
X0167341Y0058882D01*
X0167341Y0059349D01*
X0166874Y0059816D01*
X0166407Y0059816D01*
X0166874Y0059816D02*
X0167341Y0060283D01*
X0167341Y0060750D01*
X0166874Y0061217D01*
X0165940Y0061217D01*
X0165473Y0060750D01*
X0161816Y0058415D02*
X0160882Y0059349D01*
X0161349Y0052966D02*
X0159948Y0052966D01*
X0159948Y0050163D01*
X0159948Y0051098D02*
X0161349Y0051098D01*
X0161816Y0051565D01*
X0161816Y0052499D01*
X0161349Y0052966D01*
X0162710Y0052032D02*
X0163644Y0052966D01*
X0163644Y0050163D01*
X0162710Y0050163D02*
X0164579Y0050163D01*
X0165473Y0050163D02*
X0167341Y0052032D01*
X0167341Y0052499D01*
X0166874Y0052966D01*
X0165940Y0052966D01*
X0165473Y0052499D01*
X0161816Y0050163D02*
X0160882Y0051098D01*
X0165473Y0050163D02*
X0167341Y0050163D01*
X0164112Y0044514D02*
X0163177Y0044514D01*
X0162710Y0044047D01*
X0162710Y0043580D01*
X0163177Y0043113D01*
X0164112Y0043113D01*
X0164579Y0042646D01*
X0164579Y0042179D01*
X0164112Y0041712D01*
X0163177Y0041712D01*
X0162710Y0042179D01*
X0162710Y0042646D01*
X0163177Y0043113D01*
X0164112Y0043113D02*
X0164579Y0043580D01*
X0164579Y0044047D01*
X0164112Y0044514D01*
X0161816Y0044047D02*
X0161816Y0043113D01*
X0161349Y0042646D01*
X0159948Y0042646D01*
X0160882Y0042646D02*
X0161816Y0041712D01*
X0159948Y0041712D02*
X0159948Y0044514D01*
X0161349Y0044514D01*
X0161816Y0044047D01*
X0177210Y0086308D02*
X0176743Y0086775D01*
X0177210Y0086308D02*
X0178144Y0086308D01*
X0178611Y0086775D01*
X0178611Y0087709D01*
X0178144Y0088176D01*
X0177677Y0088176D01*
X0176743Y0087709D01*
X0176743Y0089110D01*
X0178611Y0089110D01*
X0179505Y0089110D02*
X0179505Y0087242D01*
X0180439Y0086308D01*
X0181374Y0087242D01*
X0181374Y0089110D01*
X0180907Y0090191D02*
X0181374Y0090658D01*
X0180907Y0090191D02*
X0179972Y0090191D01*
X0179505Y0090658D01*
X0179505Y0092526D01*
X0179972Y0092993D01*
X0180907Y0092993D01*
X0181374Y0092526D01*
X0182268Y0092526D02*
X0182268Y0090658D01*
X0182735Y0090191D01*
X0183669Y0090191D01*
X0184136Y0090658D01*
X0184136Y0092526D02*
X0183669Y0092993D01*
X0182735Y0092993D01*
X0182268Y0092526D01*
X0182288Y0094073D02*
X0181354Y0094073D01*
X0180887Y0094540D01*
X0179972Y0094540D02*
X0179972Y0094073D01*
X0179505Y0094073D01*
X0179505Y0094540D01*
X0179972Y0094540D01*
X0178611Y0094540D02*
X0178144Y0094073D01*
X0177210Y0094073D01*
X0176743Y0094540D01*
X0177677Y0095474D02*
X0178144Y0095474D01*
X0178611Y0095007D01*
X0178611Y0094540D01*
X0178144Y0095474D02*
X0178611Y0095941D01*
X0178611Y0096408D01*
X0178144Y0096875D01*
X0177210Y0096875D01*
X0176743Y0096408D01*
X0176743Y0092993D02*
X0176743Y0091125D01*
X0177677Y0090191D01*
X0178611Y0091125D01*
X0178611Y0092993D01*
X0182288Y0094073D02*
X0182755Y0094540D01*
X0182755Y0095007D01*
X0182288Y0095474D01*
X0181821Y0095474D01*
X0182288Y0095474D02*
X0182755Y0095941D01*
X0182755Y0096408D01*
X0182288Y0096875D01*
X0181354Y0096875D01*
X0180887Y0096408D01*
X0183649Y0096875D02*
X0183649Y0095007D01*
X0184583Y0094073D01*
X0185517Y0095007D01*
X0185517Y0096875D01*
X0047638Y0067637D02*
X0047638Y0067170D01*
X0045770Y0065302D01*
X0047638Y0065302D01*
X0044876Y0065769D02*
X0044409Y0065302D01*
X0043475Y0065302D01*
X0043008Y0065769D01*
X0043008Y0067637D01*
X0043475Y0068104D01*
X0044409Y0068104D01*
X0044876Y0067637D01*
X0045770Y0067637D02*
X0046237Y0068104D01*
X0047171Y0068104D01*
X0047638Y0067637D01*
X0042100Y0068104D02*
X0041166Y0068104D01*
X0041633Y0068104D02*
X0041633Y0065302D01*
X0041166Y0065302D02*
X0042100Y0065302D01*
D15*
X0058922Y0077624D02*
X0058922Y0079124D01*
X0057422Y0079124D01*
X0058922Y0079124D02*
X0058922Y0080624D01*
X0058922Y0079124D02*
X0060422Y0079124D01*
X0041422Y0084124D02*
X0041425Y0084394D01*
X0041435Y0084664D01*
X0041452Y0084933D01*
X0041475Y0085202D01*
X0041505Y0085471D01*
X0041541Y0085738D01*
X0041584Y0086005D01*
X0041633Y0086270D01*
X0041689Y0086534D01*
X0041752Y0086797D01*
X0041820Y0087058D01*
X0041896Y0087317D01*
X0041977Y0087574D01*
X0042065Y0087830D01*
X0042159Y0088083D01*
X0042259Y0088334D01*
X0042366Y0088582D01*
X0042478Y0088827D01*
X0042597Y0089070D01*
X0042721Y0089309D01*
X0042851Y0089546D01*
X0042987Y0089779D01*
X0043129Y0090009D01*
X0043276Y0090235D01*
X0043429Y0090458D01*
X0043587Y0090677D01*
X0043750Y0090892D01*
X0043919Y0091102D01*
X0044093Y0091309D01*
X0044272Y0091511D01*
X0044455Y0091709D01*
X0044644Y0091902D01*
X0044837Y0092091D01*
X0045035Y0092274D01*
X0045237Y0092453D01*
X0045444Y0092627D01*
X0045654Y0092796D01*
X0045869Y0092959D01*
X0046088Y0093117D01*
X0046311Y0093270D01*
X0046537Y0093417D01*
X0046767Y0093559D01*
X0047000Y0093695D01*
X0047237Y0093825D01*
X0047476Y0093949D01*
X0047719Y0094068D01*
X0047964Y0094180D01*
X0048212Y0094287D01*
X0048463Y0094387D01*
X0048716Y0094481D01*
X0048972Y0094569D01*
X0049229Y0094650D01*
X0049488Y0094726D01*
X0049749Y0094794D01*
X0050012Y0094857D01*
X0050276Y0094913D01*
X0050541Y0094962D01*
X0050808Y0095005D01*
X0051075Y0095041D01*
X0051344Y0095071D01*
X0051613Y0095094D01*
X0051882Y0095111D01*
X0052152Y0095121D01*
X0052422Y0095124D01*
X0052692Y0095121D01*
X0052962Y0095111D01*
X0053231Y0095094D01*
X0053500Y0095071D01*
X0053769Y0095041D01*
X0054036Y0095005D01*
X0054303Y0094962D01*
X0054568Y0094913D01*
X0054832Y0094857D01*
X0055095Y0094794D01*
X0055356Y0094726D01*
X0055615Y0094650D01*
X0055872Y0094569D01*
X0056128Y0094481D01*
X0056381Y0094387D01*
X0056632Y0094287D01*
X0056880Y0094180D01*
X0057125Y0094068D01*
X0057368Y0093949D01*
X0057607Y0093825D01*
X0057844Y0093695D01*
X0058077Y0093559D01*
X0058307Y0093417D01*
X0058533Y0093270D01*
X0058756Y0093117D01*
X0058975Y0092959D01*
X0059190Y0092796D01*
X0059400Y0092627D01*
X0059607Y0092453D01*
X0059809Y0092274D01*
X0060007Y0092091D01*
X0060200Y0091902D01*
X0060389Y0091709D01*
X0060572Y0091511D01*
X0060751Y0091309D01*
X0060925Y0091102D01*
X0061094Y0090892D01*
X0061257Y0090677D01*
X0061415Y0090458D01*
X0061568Y0090235D01*
X0061715Y0090009D01*
X0061857Y0089779D01*
X0061993Y0089546D01*
X0062123Y0089309D01*
X0062247Y0089070D01*
X0062366Y0088827D01*
X0062478Y0088582D01*
X0062585Y0088334D01*
X0062685Y0088083D01*
X0062779Y0087830D01*
X0062867Y0087574D01*
X0062948Y0087317D01*
X0063024Y0087058D01*
X0063092Y0086797D01*
X0063155Y0086534D01*
X0063211Y0086270D01*
X0063260Y0086005D01*
X0063303Y0085738D01*
X0063339Y0085471D01*
X0063369Y0085202D01*
X0063392Y0084933D01*
X0063409Y0084664D01*
X0063419Y0084394D01*
X0063422Y0084124D01*
X0063419Y0083854D01*
X0063409Y0083584D01*
X0063392Y0083315D01*
X0063369Y0083046D01*
X0063339Y0082777D01*
X0063303Y0082510D01*
X0063260Y0082243D01*
X0063211Y0081978D01*
X0063155Y0081714D01*
X0063092Y0081451D01*
X0063024Y0081190D01*
X0062948Y0080931D01*
X0062867Y0080674D01*
X0062779Y0080418D01*
X0062685Y0080165D01*
X0062585Y0079914D01*
X0062478Y0079666D01*
X0062366Y0079421D01*
X0062247Y0079178D01*
X0062123Y0078939D01*
X0061993Y0078702D01*
X0061857Y0078469D01*
X0061715Y0078239D01*
X0061568Y0078013D01*
X0061415Y0077790D01*
X0061257Y0077571D01*
X0061094Y0077356D01*
X0060925Y0077146D01*
X0060751Y0076939D01*
X0060572Y0076737D01*
X0060389Y0076539D01*
X0060200Y0076346D01*
X0060007Y0076157D01*
X0059809Y0075974D01*
X0059607Y0075795D01*
X0059400Y0075621D01*
X0059190Y0075452D01*
X0058975Y0075289D01*
X0058756Y0075131D01*
X0058533Y0074978D01*
X0058307Y0074831D01*
X0058077Y0074689D01*
X0057844Y0074553D01*
X0057607Y0074423D01*
X0057368Y0074299D01*
X0057125Y0074180D01*
X0056880Y0074068D01*
X0056632Y0073961D01*
X0056381Y0073861D01*
X0056128Y0073767D01*
X0055872Y0073679D01*
X0055615Y0073598D01*
X0055356Y0073522D01*
X0055095Y0073454D01*
X0054832Y0073391D01*
X0054568Y0073335D01*
X0054303Y0073286D01*
X0054036Y0073243D01*
X0053769Y0073207D01*
X0053500Y0073177D01*
X0053231Y0073154D01*
X0052962Y0073137D01*
X0052692Y0073127D01*
X0052422Y0073124D01*
X0052152Y0073127D01*
X0051882Y0073137D01*
X0051613Y0073154D01*
X0051344Y0073177D01*
X0051075Y0073207D01*
X0050808Y0073243D01*
X0050541Y0073286D01*
X0050276Y0073335D01*
X0050012Y0073391D01*
X0049749Y0073454D01*
X0049488Y0073522D01*
X0049229Y0073598D01*
X0048972Y0073679D01*
X0048716Y0073767D01*
X0048463Y0073861D01*
X0048212Y0073961D01*
X0047964Y0074068D01*
X0047719Y0074180D01*
X0047476Y0074299D01*
X0047237Y0074423D01*
X0047000Y0074553D01*
X0046767Y0074689D01*
X0046537Y0074831D01*
X0046311Y0074978D01*
X0046088Y0075131D01*
X0045869Y0075289D01*
X0045654Y0075452D01*
X0045444Y0075621D01*
X0045237Y0075795D01*
X0045035Y0075974D01*
X0044837Y0076157D01*
X0044644Y0076346D01*
X0044455Y0076539D01*
X0044272Y0076737D01*
X0044093Y0076939D01*
X0043919Y0077146D01*
X0043750Y0077356D01*
X0043587Y0077571D01*
X0043429Y0077790D01*
X0043276Y0078013D01*
X0043129Y0078239D01*
X0042987Y0078469D01*
X0042851Y0078702D01*
X0042721Y0078939D01*
X0042597Y0079178D01*
X0042478Y0079421D01*
X0042366Y0079666D01*
X0042259Y0079914D01*
X0042159Y0080165D01*
X0042065Y0080418D01*
X0041977Y0080674D01*
X0041896Y0080931D01*
X0041820Y0081190D01*
X0041752Y0081451D01*
X0041689Y0081714D01*
X0041633Y0081978D01*
X0041584Y0082243D01*
X0041541Y0082510D01*
X0041505Y0082777D01*
X0041475Y0083046D01*
X0041452Y0083315D01*
X0041435Y0083584D01*
X0041425Y0083854D01*
X0041422Y0084124D01*
X0039365Y0101323D02*
X0034365Y0101323D01*
X0031865Y0103823D01*
X0031865Y0118823D01*
X0034365Y0121323D01*
X0039365Y0121323D01*
X0041865Y0118823D01*
X0041865Y0103823D01*
X0044365Y0101323D01*
X0049365Y0101323D01*
X0051865Y0103823D01*
X0051865Y0118823D01*
X0054365Y0121323D01*
X0059365Y0121323D01*
X0061865Y0118823D01*
X0061865Y0103823D01*
X0064365Y0101323D01*
X0069365Y0101323D01*
X0071865Y0103823D01*
X0071865Y0118823D01*
X0074365Y0121323D01*
X0079365Y0121323D01*
X0081865Y0118823D01*
X0081865Y0103823D01*
X0084365Y0101323D01*
X0089365Y0101323D01*
X0091865Y0103823D01*
X0091865Y0118823D01*
X0094365Y0121323D01*
X0099365Y0121323D01*
X0101865Y0118823D01*
X0101865Y0103823D01*
X0099365Y0101323D01*
X0094365Y0101323D01*
X0091865Y0103823D01*
X0081865Y0103823D02*
X0079365Y0101323D01*
X0074365Y0101323D01*
X0071865Y0103823D01*
X0061865Y0103823D02*
X0059365Y0101323D01*
X0054365Y0101323D01*
X0051865Y0103823D01*
X0041865Y0103823D02*
X0039365Y0101323D01*
X0041865Y0118823D02*
X0044365Y0121323D01*
X0049365Y0121323D01*
X0051865Y0118823D01*
X0061865Y0118823D02*
X0064365Y0121323D01*
X0069365Y0121323D01*
X0071865Y0118823D01*
X0081865Y0118823D02*
X0084365Y0121323D01*
X0089365Y0121323D01*
X0091865Y0118823D01*
X0101865Y0118823D02*
X0104365Y0121323D01*
X0109365Y0121323D01*
X0111865Y0118823D01*
X0111865Y0103823D01*
X0109365Y0101323D01*
X0104365Y0101323D01*
X0101865Y0103823D01*
X0111865Y0103823D02*
X0114365Y0101323D01*
X0119365Y0101323D01*
X0121865Y0103823D01*
X0121865Y0118823D01*
X0124365Y0121323D01*
X0129365Y0121323D01*
X0131865Y0118823D01*
X0131865Y0103823D01*
X0129365Y0101323D01*
X0124365Y0101323D01*
X0121865Y0103823D01*
X0131865Y0103823D02*
X0134365Y0101323D01*
X0139365Y0101323D01*
X0141865Y0103823D01*
X0141865Y0118823D01*
X0144365Y0121323D01*
X0149365Y0121323D01*
X0151865Y0118823D01*
X0151865Y0103823D01*
X0149365Y0101323D01*
X0144365Y0101323D01*
X0141865Y0103823D01*
X0151865Y0103823D02*
X0154365Y0101323D01*
X0159365Y0101323D01*
X0161865Y0103823D01*
X0161865Y0118823D01*
X0164365Y0121323D01*
X0169365Y0121323D01*
X0171865Y0118823D01*
X0171865Y0103823D01*
X0169365Y0101323D01*
X0164365Y0101323D01*
X0161865Y0103823D01*
X0171865Y0103823D02*
X0174365Y0101323D01*
X0179365Y0101323D01*
X0181865Y0103823D01*
X0181865Y0118823D01*
X0184365Y0121323D01*
X0189365Y0121323D01*
X0191865Y0118823D01*
X0191865Y0103823D01*
X0189365Y0101323D01*
X0184365Y0101323D01*
X0181865Y0103823D01*
X0191865Y0103823D02*
X0194365Y0101323D01*
X0199365Y0101323D01*
X0201865Y0103823D01*
X0201865Y0118823D01*
X0204365Y0121323D01*
X0209365Y0121323D01*
X0211865Y0118823D01*
X0211865Y0103823D01*
X0209365Y0101323D01*
X0204365Y0101323D01*
X0201865Y0103823D01*
X0197892Y0098692D02*
X0192892Y0098692D01*
X0190392Y0096192D01*
X0190392Y0091192D01*
X0192892Y0088692D01*
X0190392Y0086192D01*
X0190392Y0081192D01*
X0192892Y0078692D01*
X0190392Y0076192D01*
X0190392Y0071192D01*
X0192892Y0068692D01*
X0197892Y0068692D01*
X0200392Y0071192D01*
X0200392Y0076192D01*
X0197892Y0078692D01*
X0192892Y0078692D01*
X0197892Y0078692D02*
X0200392Y0081192D01*
X0200392Y0086192D01*
X0197892Y0088692D01*
X0192892Y0088692D01*
X0197892Y0088692D02*
X0200392Y0091192D01*
X0200392Y0096192D01*
X0197892Y0098692D01*
X0211865Y0103823D02*
X0214365Y0101323D01*
X0219365Y0101323D01*
X0221865Y0103823D01*
X0224365Y0101323D01*
X0229365Y0101323D01*
X0231865Y0103823D01*
X0231865Y0118823D01*
X0229365Y0121323D01*
X0224365Y0121323D01*
X0221865Y0118823D01*
X0221865Y0103823D01*
X0221865Y0118823D02*
X0219365Y0121323D01*
X0214365Y0121323D01*
X0211865Y0118823D01*
X0201865Y0118823D02*
X0199365Y0121323D01*
X0194365Y0121323D01*
X0191865Y0118823D01*
X0181865Y0118823D02*
X0179365Y0121323D01*
X0174365Y0121323D01*
X0171865Y0118823D01*
X0161865Y0118823D02*
X0159365Y0121323D01*
X0154365Y0121323D01*
X0151865Y0118823D01*
X0141865Y0118823D02*
X0139365Y0121323D01*
X0134365Y0121323D01*
X0131865Y0118823D01*
X0121865Y0118823D02*
X0119365Y0121323D01*
X0114365Y0121323D01*
X0111865Y0118823D01*
X0113748Y0063423D02*
X0076748Y0063423D01*
X0076672Y0063421D01*
X0076596Y0063415D01*
X0076521Y0063406D01*
X0076446Y0063392D01*
X0076372Y0063375D01*
X0076299Y0063354D01*
X0076227Y0063330D01*
X0076156Y0063301D01*
X0076087Y0063270D01*
X0076020Y0063235D01*
X0075955Y0063196D01*
X0075891Y0063154D01*
X0075830Y0063109D01*
X0075771Y0063061D01*
X0075715Y0063010D01*
X0075661Y0062956D01*
X0075610Y0062900D01*
X0075562Y0062841D01*
X0075517Y0062780D01*
X0075475Y0062716D01*
X0075436Y0062651D01*
X0075401Y0062584D01*
X0075370Y0062515D01*
X0075341Y0062444D01*
X0075317Y0062372D01*
X0075296Y0062299D01*
X0075279Y0062225D01*
X0075265Y0062150D01*
X0075256Y0062075D01*
X0075250Y0061999D01*
X0075248Y0061923D01*
X0075248Y0049523D01*
X0075250Y0049447D01*
X0075256Y0049371D01*
X0075265Y0049296D01*
X0075279Y0049221D01*
X0075296Y0049147D01*
X0075317Y0049074D01*
X0075341Y0049002D01*
X0075370Y0048931D01*
X0075401Y0048862D01*
X0075436Y0048795D01*
X0075475Y0048730D01*
X0075517Y0048666D01*
X0075562Y0048605D01*
X0075610Y0048546D01*
X0075661Y0048490D01*
X0075715Y0048436D01*
X0075771Y0048385D01*
X0075830Y0048337D01*
X0075891Y0048292D01*
X0075955Y0048250D01*
X0076020Y0048211D01*
X0076087Y0048176D01*
X0076156Y0048145D01*
X0076227Y0048116D01*
X0076299Y0048092D01*
X0076372Y0048071D01*
X0076446Y0048054D01*
X0076521Y0048040D01*
X0076596Y0048031D01*
X0076672Y0048025D01*
X0076748Y0048023D01*
X0113748Y0048023D01*
X0113824Y0048025D01*
X0113900Y0048031D01*
X0113975Y0048040D01*
X0114050Y0048054D01*
X0114124Y0048071D01*
X0114197Y0048092D01*
X0114269Y0048116D01*
X0114340Y0048145D01*
X0114409Y0048176D01*
X0114476Y0048211D01*
X0114541Y0048250D01*
X0114605Y0048292D01*
X0114666Y0048337D01*
X0114725Y0048385D01*
X0114781Y0048436D01*
X0114835Y0048490D01*
X0114886Y0048546D01*
X0114934Y0048605D01*
X0114979Y0048666D01*
X0115021Y0048730D01*
X0115060Y0048795D01*
X0115095Y0048862D01*
X0115126Y0048931D01*
X0115155Y0049002D01*
X0115179Y0049074D01*
X0115200Y0049147D01*
X0115217Y0049221D01*
X0115231Y0049296D01*
X0115240Y0049371D01*
X0115246Y0049447D01*
X0115248Y0049523D01*
X0115248Y0061923D01*
X0115246Y0061999D01*
X0115240Y0062075D01*
X0115231Y0062150D01*
X0115217Y0062225D01*
X0115200Y0062299D01*
X0115179Y0062372D01*
X0115155Y0062444D01*
X0115126Y0062515D01*
X0115095Y0062584D01*
X0115060Y0062651D01*
X0115021Y0062716D01*
X0114979Y0062780D01*
X0114934Y0062841D01*
X0114886Y0062900D01*
X0114835Y0062956D01*
X0114781Y0063010D01*
X0114725Y0063061D01*
X0114666Y0063109D01*
X0114605Y0063154D01*
X0114541Y0063196D01*
X0114476Y0063235D01*
X0114409Y0063270D01*
X0114340Y0063301D01*
X0114269Y0063330D01*
X0114197Y0063354D01*
X0114124Y0063375D01*
X0114050Y0063392D01*
X0113975Y0063406D01*
X0113900Y0063415D01*
X0113824Y0063421D01*
X0113748Y0063423D01*
X0115248Y0057723D02*
X0115160Y0057721D01*
X0115071Y0057715D01*
X0114983Y0057705D01*
X0114896Y0057692D01*
X0114809Y0057674D01*
X0114723Y0057653D01*
X0114638Y0057628D01*
X0114555Y0057599D01*
X0114472Y0057566D01*
X0114392Y0057530D01*
X0114313Y0057491D01*
X0114235Y0057448D01*
X0114160Y0057401D01*
X0114087Y0057351D01*
X0114016Y0057298D01*
X0113947Y0057242D01*
X0113881Y0057183D01*
X0113818Y0057121D01*
X0113758Y0057057D01*
X0113700Y0056990D01*
X0113646Y0056920D01*
X0113594Y0056848D01*
X0113546Y0056774D01*
X0113501Y0056697D01*
X0113460Y0056619D01*
X0113422Y0056539D01*
X0113388Y0056458D01*
X0113357Y0056375D01*
X0113330Y0056290D01*
X0113307Y0056205D01*
X0113288Y0056119D01*
X0113272Y0056031D01*
X0113260Y0055944D01*
X0113252Y0055856D01*
X0113248Y0055767D01*
X0113248Y0055679D01*
X0113252Y0055590D01*
X0113260Y0055502D01*
X0113272Y0055415D01*
X0113288Y0055327D01*
X0113307Y0055241D01*
X0113330Y0055156D01*
X0113357Y0055071D01*
X0113388Y0054988D01*
X0113422Y0054907D01*
X0113460Y0054827D01*
X0113501Y0054749D01*
X0113546Y0054672D01*
X0113594Y0054598D01*
X0113646Y0054526D01*
X0113700Y0054456D01*
X0113758Y0054389D01*
X0113818Y0054325D01*
X0113881Y0054263D01*
X0113947Y0054204D01*
X0114016Y0054148D01*
X0114087Y0054095D01*
X0114160Y0054045D01*
X0114235Y0053998D01*
X0114313Y0053955D01*
X0114392Y0053916D01*
X0114472Y0053880D01*
X0114555Y0053847D01*
X0114638Y0053818D01*
X0114723Y0053793D01*
X0114809Y0053772D01*
X0114896Y0053754D01*
X0114983Y0053741D01*
X0115071Y0053731D01*
X0115160Y0053725D01*
X0115248Y0053723D01*
X0230733Y0036995D02*
X0230734Y0036995D01*
X0230735Y0036994D01*
X0230735Y0036993D01*
D16*
X0231948Y0036047D02*
X0239448Y0036047D01*
X0239448Y0096047D01*
X0256948Y0096047D01*
X0256948Y0036047D01*
X0239448Y0036047D01*
X0231948Y0036047D02*
X0231948Y0096047D01*
X0239448Y0096047D01*
X0229741Y0098692D02*
X0229741Y0068692D01*
X0212241Y0068692D01*
X0212241Y0098692D01*
X0229741Y0098692D01*
X0212241Y0098692D02*
X0204741Y0098692D01*
X0204741Y0068692D01*
X0212241Y0068692D01*
X0224408Y0035690D02*
X0184408Y0035690D01*
X0184408Y0028190D01*
X0224408Y0028190D01*
X0224408Y0010690D01*
X0184408Y0010690D01*
X0184408Y0028190D01*
X0175478Y0028190D02*
X0135478Y0028190D01*
X0135478Y0035690D01*
X0175478Y0035690D01*
X0175478Y0028190D01*
X0175478Y0010690D01*
X0135478Y0010690D01*
X0135478Y0028190D01*
X0126548Y0028190D02*
X0036548Y0028190D01*
X0036548Y0035690D01*
X0126548Y0035690D01*
X0126548Y0028190D01*
X0126548Y0010690D01*
X0036548Y0010690D01*
X0036548Y0028190D01*
X0031275Y0033253D02*
X0023775Y0033253D01*
X0023775Y0053253D01*
X0031275Y0053253D01*
X0031275Y0033253D01*
X0023775Y0033253D02*
X0006275Y0033253D01*
X0006275Y0053253D01*
X0023775Y0053253D01*
X0224408Y0035690D02*
X0224408Y0028190D01*
D17*
X0233605Y0029606D02*
X0234205Y0029005D01*
X0235407Y0029005D01*
X0236007Y0029606D01*
X0236007Y0030206D01*
X0235407Y0030807D01*
X0234205Y0030807D01*
X0233605Y0031407D01*
X0233605Y0032008D01*
X0234205Y0032608D01*
X0235407Y0032608D01*
X0236007Y0032008D01*
X0237288Y0032608D02*
X0239090Y0032608D01*
X0239690Y0032008D01*
X0239690Y0030807D01*
X0239090Y0030206D01*
X0237288Y0030206D01*
X0237288Y0029005D02*
X0237288Y0032608D01*
X0240971Y0032608D02*
X0242172Y0032608D01*
X0241572Y0032608D02*
X0241572Y0029005D01*
X0242172Y0029005D02*
X0240971Y0029005D01*
X0226450Y0041373D02*
X0221846Y0041373D01*
X0226450Y0041373D02*
X0226450Y0044442D01*
X0226450Y0045977D02*
X0226450Y0049046D01*
X0226450Y0050581D02*
X0226450Y0052883D01*
X0225682Y0053650D01*
X0222613Y0053650D01*
X0221846Y0052883D01*
X0221846Y0050581D01*
X0226450Y0050581D01*
X0221846Y0049046D02*
X0221846Y0045977D01*
X0226450Y0045977D01*
X0224148Y0045977D02*
X0224148Y0047512D01*
X0223380Y0055185D02*
X0221846Y0056720D01*
X0226450Y0056720D01*
X0226450Y0058254D02*
X0226450Y0055185D01*
X0181648Y0030119D02*
X0181648Y0027717D01*
X0178045Y0027717D01*
X0179246Y0026435D02*
X0181648Y0026435D01*
X0179846Y0026435D02*
X0179846Y0024033D01*
X0179246Y0024033D02*
X0181648Y0024033D01*
X0181648Y0022779D02*
X0181648Y0021578D01*
X0181648Y0022179D02*
X0178045Y0022179D01*
X0178045Y0022779D02*
X0178045Y0021578D01*
X0178645Y0020297D02*
X0179846Y0020297D01*
X0180447Y0019696D01*
X0180447Y0017895D01*
X0180447Y0019096D02*
X0181648Y0020297D01*
X0178645Y0020297D02*
X0178045Y0019696D01*
X0178045Y0017895D01*
X0181648Y0017895D01*
X0181648Y0016614D02*
X0181648Y0014212D01*
X0178045Y0014212D01*
X0178045Y0016614D01*
X0179846Y0015413D02*
X0179846Y0014212D01*
X0180447Y0012931D02*
X0181047Y0012931D01*
X0181648Y0012330D01*
X0181648Y0011129D01*
X0181047Y0010529D01*
X0179846Y0011129D02*
X0179846Y0012330D01*
X0180447Y0012931D01*
X0178645Y0012931D02*
X0178045Y0012330D01*
X0178045Y0011129D01*
X0178645Y0010529D01*
X0179246Y0010529D01*
X0179846Y0011129D01*
X0179246Y0024033D02*
X0178045Y0025234D01*
X0179246Y0026435D01*
X0132923Y0018457D02*
X0132323Y0019057D01*
X0132923Y0018457D02*
X0132923Y0017256D01*
X0132323Y0016655D01*
X0129920Y0016655D01*
X0129320Y0017256D01*
X0129320Y0018457D01*
X0129920Y0019057D01*
X0129920Y0015374D02*
X0129320Y0014774D01*
X0129320Y0013573D01*
X0129920Y0012972D01*
X0129320Y0011718D02*
X0129320Y0010517D01*
X0129320Y0011117D02*
X0132923Y0011117D01*
X0132923Y0010517D02*
X0132923Y0011718D01*
X0132923Y0012972D02*
X0130521Y0015374D01*
X0129920Y0015374D01*
X0132923Y0015374D02*
X0132923Y0012972D01*
X0034313Y0013165D02*
X0033712Y0013765D01*
X0032511Y0013765D01*
X0032511Y0012564D01*
X0031310Y0011363D02*
X0033712Y0011363D01*
X0034313Y0011964D01*
X0034313Y0013165D01*
X0031310Y0013765D02*
X0030710Y0013165D01*
X0030710Y0011964D01*
X0031310Y0011363D01*
X0030710Y0015046D02*
X0030710Y0016848D01*
X0031310Y0017448D01*
X0032511Y0017448D01*
X0033112Y0016848D01*
X0033112Y0015046D01*
X0034313Y0015046D02*
X0030710Y0015046D01*
X0030710Y0018729D02*
X0030710Y0019930D01*
X0030710Y0019330D02*
X0034313Y0019330D01*
X0034313Y0019930D02*
X0034313Y0018729D01*
X0033712Y0021185D02*
X0031310Y0021185D01*
X0030710Y0021785D01*
X0030710Y0022986D01*
X0031310Y0023587D01*
X0033712Y0023587D01*
X0034313Y0022986D01*
X0034313Y0021785D01*
X0033712Y0021185D01*
D18*
X0009818Y0020772D02*
X0009820Y0020965D01*
X0009827Y0021158D01*
X0009839Y0021351D01*
X0009856Y0021544D01*
X0009877Y0021736D01*
X0009903Y0021927D01*
X0009934Y0022118D01*
X0009969Y0022308D01*
X0010009Y0022497D01*
X0010054Y0022685D01*
X0010103Y0022872D01*
X0010157Y0023058D01*
X0010215Y0023242D01*
X0010278Y0023425D01*
X0010346Y0023606D01*
X0010417Y0023785D01*
X0010494Y0023963D01*
X0010574Y0024139D01*
X0010659Y0024312D01*
X0010748Y0024484D01*
X0010841Y0024653D01*
X0010938Y0024820D01*
X0011040Y0024985D01*
X0011145Y0025147D01*
X0011254Y0025306D01*
X0011368Y0025463D01*
X0011485Y0025616D01*
X0011605Y0025767D01*
X0011730Y0025915D01*
X0011858Y0026060D01*
X0011989Y0026201D01*
X0012124Y0026340D01*
X0012263Y0026475D01*
X0012404Y0026606D01*
X0012549Y0026734D01*
X0012697Y0026859D01*
X0012848Y0026979D01*
X0013001Y0027096D01*
X0013158Y0027210D01*
X0013317Y0027319D01*
X0013479Y0027424D01*
X0013644Y0027526D01*
X0013811Y0027623D01*
X0013980Y0027716D01*
X0014152Y0027805D01*
X0014325Y0027890D01*
X0014501Y0027970D01*
X0014679Y0028047D01*
X0014858Y0028118D01*
X0015039Y0028186D01*
X0015222Y0028249D01*
X0015406Y0028307D01*
X0015592Y0028361D01*
X0015779Y0028410D01*
X0015967Y0028455D01*
X0016156Y0028495D01*
X0016346Y0028530D01*
X0016537Y0028561D01*
X0016728Y0028587D01*
X0016920Y0028608D01*
X0017113Y0028625D01*
X0017306Y0028637D01*
X0017499Y0028644D01*
X0017692Y0028646D01*
X0017885Y0028644D01*
X0018078Y0028637D01*
X0018271Y0028625D01*
X0018464Y0028608D01*
X0018656Y0028587D01*
X0018847Y0028561D01*
X0019038Y0028530D01*
X0019228Y0028495D01*
X0019417Y0028455D01*
X0019605Y0028410D01*
X0019792Y0028361D01*
X0019978Y0028307D01*
X0020162Y0028249D01*
X0020345Y0028186D01*
X0020526Y0028118D01*
X0020705Y0028047D01*
X0020883Y0027970D01*
X0021059Y0027890D01*
X0021232Y0027805D01*
X0021404Y0027716D01*
X0021573Y0027623D01*
X0021740Y0027526D01*
X0021905Y0027424D01*
X0022067Y0027319D01*
X0022226Y0027210D01*
X0022383Y0027096D01*
X0022536Y0026979D01*
X0022687Y0026859D01*
X0022835Y0026734D01*
X0022980Y0026606D01*
X0023121Y0026475D01*
X0023260Y0026340D01*
X0023395Y0026201D01*
X0023526Y0026060D01*
X0023654Y0025915D01*
X0023779Y0025767D01*
X0023899Y0025616D01*
X0024016Y0025463D01*
X0024130Y0025306D01*
X0024239Y0025147D01*
X0024344Y0024985D01*
X0024446Y0024820D01*
X0024543Y0024653D01*
X0024636Y0024484D01*
X0024725Y0024312D01*
X0024810Y0024139D01*
X0024890Y0023963D01*
X0024967Y0023785D01*
X0025038Y0023606D01*
X0025106Y0023425D01*
X0025169Y0023242D01*
X0025227Y0023058D01*
X0025281Y0022872D01*
X0025330Y0022685D01*
X0025375Y0022497D01*
X0025415Y0022308D01*
X0025450Y0022118D01*
X0025481Y0021927D01*
X0025507Y0021736D01*
X0025528Y0021544D01*
X0025545Y0021351D01*
X0025557Y0021158D01*
X0025564Y0020965D01*
X0025566Y0020772D01*
X0025564Y0020579D01*
X0025557Y0020386D01*
X0025545Y0020193D01*
X0025528Y0020000D01*
X0025507Y0019808D01*
X0025481Y0019617D01*
X0025450Y0019426D01*
X0025415Y0019236D01*
X0025375Y0019047D01*
X0025330Y0018859D01*
X0025281Y0018672D01*
X0025227Y0018486D01*
X0025169Y0018302D01*
X0025106Y0018119D01*
X0025038Y0017938D01*
X0024967Y0017759D01*
X0024890Y0017581D01*
X0024810Y0017405D01*
X0024725Y0017232D01*
X0024636Y0017060D01*
X0024543Y0016891D01*
X0024446Y0016724D01*
X0024344Y0016559D01*
X0024239Y0016397D01*
X0024130Y0016238D01*
X0024016Y0016081D01*
X0023899Y0015928D01*
X0023779Y0015777D01*
X0023654Y0015629D01*
X0023526Y0015484D01*
X0023395Y0015343D01*
X0023260Y0015204D01*
X0023121Y0015069D01*
X0022980Y0014938D01*
X0022835Y0014810D01*
X0022687Y0014685D01*
X0022536Y0014565D01*
X0022383Y0014448D01*
X0022226Y0014334D01*
X0022067Y0014225D01*
X0021905Y0014120D01*
X0021740Y0014018D01*
X0021573Y0013921D01*
X0021404Y0013828D01*
X0021232Y0013739D01*
X0021059Y0013654D01*
X0020883Y0013574D01*
X0020705Y0013497D01*
X0020526Y0013426D01*
X0020345Y0013358D01*
X0020162Y0013295D01*
X0019978Y0013237D01*
X0019792Y0013183D01*
X0019605Y0013134D01*
X0019417Y0013089D01*
X0019228Y0013049D01*
X0019038Y0013014D01*
X0018847Y0012983D01*
X0018656Y0012957D01*
X0018464Y0012936D01*
X0018271Y0012919D01*
X0018078Y0012907D01*
X0017885Y0012900D01*
X0017692Y0012898D01*
X0017499Y0012900D01*
X0017306Y0012907D01*
X0017113Y0012919D01*
X0016920Y0012936D01*
X0016728Y0012957D01*
X0016537Y0012983D01*
X0016346Y0013014D01*
X0016156Y0013049D01*
X0015967Y0013089D01*
X0015779Y0013134D01*
X0015592Y0013183D01*
X0015406Y0013237D01*
X0015222Y0013295D01*
X0015039Y0013358D01*
X0014858Y0013426D01*
X0014679Y0013497D01*
X0014501Y0013574D01*
X0014325Y0013654D01*
X0014152Y0013739D01*
X0013980Y0013828D01*
X0013811Y0013921D01*
X0013644Y0014018D01*
X0013479Y0014120D01*
X0013317Y0014225D01*
X0013158Y0014334D01*
X0013001Y0014448D01*
X0012848Y0014565D01*
X0012697Y0014685D01*
X0012549Y0014810D01*
X0012404Y0014938D01*
X0012263Y0015069D01*
X0012124Y0015204D01*
X0011989Y0015343D01*
X0011858Y0015484D01*
X0011730Y0015629D01*
X0011605Y0015777D01*
X0011485Y0015928D01*
X0011368Y0016081D01*
X0011254Y0016238D01*
X0011145Y0016397D01*
X0011040Y0016559D01*
X0010938Y0016724D01*
X0010841Y0016891D01*
X0010748Y0017060D01*
X0010659Y0017232D01*
X0010574Y0017405D01*
X0010494Y0017581D01*
X0010417Y0017759D01*
X0010346Y0017938D01*
X0010278Y0018119D01*
X0010215Y0018302D01*
X0010157Y0018486D01*
X0010103Y0018672D01*
X0010054Y0018859D01*
X0010009Y0019047D01*
X0009969Y0019236D01*
X0009934Y0019426D01*
X0009903Y0019617D01*
X0009877Y0019808D01*
X0009856Y0020000D01*
X0009839Y0020193D01*
X0009827Y0020386D01*
X0009820Y0020579D01*
X0009818Y0020772D01*
X0047648Y0037521D02*
X0047648Y0063325D01*
X0061648Y0063325D01*
X0061648Y0037521D01*
X0047648Y0037521D01*
X0034323Y0056001D02*
X0009323Y0056001D01*
X0006823Y0058501D01*
X0006823Y0063501D01*
X0009323Y0066001D01*
X0034323Y0066001D01*
X0036823Y0068501D01*
X0036823Y0073501D01*
X0034323Y0076001D01*
X0009323Y0076001D01*
X0006823Y0078501D01*
X0006823Y0083501D01*
X0009323Y0086001D01*
X0034323Y0086001D01*
X0036823Y0088501D01*
X0036823Y0093501D01*
X0034323Y0096001D01*
X0009323Y0096001D01*
X0006823Y0093501D01*
X0006823Y0088501D01*
X0009323Y0086001D01*
X0009323Y0076001D02*
X0006823Y0073501D01*
X0006823Y0068501D01*
X0009323Y0066001D01*
X0034323Y0066001D02*
X0036823Y0063501D01*
X0036823Y0058501D01*
X0034323Y0056001D01*
X0034323Y0076001D02*
X0036823Y0078501D01*
X0036823Y0083501D01*
X0034323Y0086001D01*
X0009818Y0111323D02*
X0009820Y0111516D01*
X0009827Y0111709D01*
X0009839Y0111902D01*
X0009856Y0112095D01*
X0009877Y0112287D01*
X0009903Y0112478D01*
X0009934Y0112669D01*
X0009969Y0112859D01*
X0010009Y0113048D01*
X0010054Y0113236D01*
X0010103Y0113423D01*
X0010157Y0113609D01*
X0010215Y0113793D01*
X0010278Y0113976D01*
X0010346Y0114157D01*
X0010417Y0114336D01*
X0010494Y0114514D01*
X0010574Y0114690D01*
X0010659Y0114863D01*
X0010748Y0115035D01*
X0010841Y0115204D01*
X0010938Y0115371D01*
X0011040Y0115536D01*
X0011145Y0115698D01*
X0011254Y0115857D01*
X0011368Y0116014D01*
X0011485Y0116167D01*
X0011605Y0116318D01*
X0011730Y0116466D01*
X0011858Y0116611D01*
X0011989Y0116752D01*
X0012124Y0116891D01*
X0012263Y0117026D01*
X0012404Y0117157D01*
X0012549Y0117285D01*
X0012697Y0117410D01*
X0012848Y0117530D01*
X0013001Y0117647D01*
X0013158Y0117761D01*
X0013317Y0117870D01*
X0013479Y0117975D01*
X0013644Y0118077D01*
X0013811Y0118174D01*
X0013980Y0118267D01*
X0014152Y0118356D01*
X0014325Y0118441D01*
X0014501Y0118521D01*
X0014679Y0118598D01*
X0014858Y0118669D01*
X0015039Y0118737D01*
X0015222Y0118800D01*
X0015406Y0118858D01*
X0015592Y0118912D01*
X0015779Y0118961D01*
X0015967Y0119006D01*
X0016156Y0119046D01*
X0016346Y0119081D01*
X0016537Y0119112D01*
X0016728Y0119138D01*
X0016920Y0119159D01*
X0017113Y0119176D01*
X0017306Y0119188D01*
X0017499Y0119195D01*
X0017692Y0119197D01*
X0017885Y0119195D01*
X0018078Y0119188D01*
X0018271Y0119176D01*
X0018464Y0119159D01*
X0018656Y0119138D01*
X0018847Y0119112D01*
X0019038Y0119081D01*
X0019228Y0119046D01*
X0019417Y0119006D01*
X0019605Y0118961D01*
X0019792Y0118912D01*
X0019978Y0118858D01*
X0020162Y0118800D01*
X0020345Y0118737D01*
X0020526Y0118669D01*
X0020705Y0118598D01*
X0020883Y0118521D01*
X0021059Y0118441D01*
X0021232Y0118356D01*
X0021404Y0118267D01*
X0021573Y0118174D01*
X0021740Y0118077D01*
X0021905Y0117975D01*
X0022067Y0117870D01*
X0022226Y0117761D01*
X0022383Y0117647D01*
X0022536Y0117530D01*
X0022687Y0117410D01*
X0022835Y0117285D01*
X0022980Y0117157D01*
X0023121Y0117026D01*
X0023260Y0116891D01*
X0023395Y0116752D01*
X0023526Y0116611D01*
X0023654Y0116466D01*
X0023779Y0116318D01*
X0023899Y0116167D01*
X0024016Y0116014D01*
X0024130Y0115857D01*
X0024239Y0115698D01*
X0024344Y0115536D01*
X0024446Y0115371D01*
X0024543Y0115204D01*
X0024636Y0115035D01*
X0024725Y0114863D01*
X0024810Y0114690D01*
X0024890Y0114514D01*
X0024967Y0114336D01*
X0025038Y0114157D01*
X0025106Y0113976D01*
X0025169Y0113793D01*
X0025227Y0113609D01*
X0025281Y0113423D01*
X0025330Y0113236D01*
X0025375Y0113048D01*
X0025415Y0112859D01*
X0025450Y0112669D01*
X0025481Y0112478D01*
X0025507Y0112287D01*
X0025528Y0112095D01*
X0025545Y0111902D01*
X0025557Y0111709D01*
X0025564Y0111516D01*
X0025566Y0111323D01*
X0025564Y0111130D01*
X0025557Y0110937D01*
X0025545Y0110744D01*
X0025528Y0110551D01*
X0025507Y0110359D01*
X0025481Y0110168D01*
X0025450Y0109977D01*
X0025415Y0109787D01*
X0025375Y0109598D01*
X0025330Y0109410D01*
X0025281Y0109223D01*
X0025227Y0109037D01*
X0025169Y0108853D01*
X0025106Y0108670D01*
X0025038Y0108489D01*
X0024967Y0108310D01*
X0024890Y0108132D01*
X0024810Y0107956D01*
X0024725Y0107783D01*
X0024636Y0107611D01*
X0024543Y0107442D01*
X0024446Y0107275D01*
X0024344Y0107110D01*
X0024239Y0106948D01*
X0024130Y0106789D01*
X0024016Y0106632D01*
X0023899Y0106479D01*
X0023779Y0106328D01*
X0023654Y0106180D01*
X0023526Y0106035D01*
X0023395Y0105894D01*
X0023260Y0105755D01*
X0023121Y0105620D01*
X0022980Y0105489D01*
X0022835Y0105361D01*
X0022687Y0105236D01*
X0022536Y0105116D01*
X0022383Y0104999D01*
X0022226Y0104885D01*
X0022067Y0104776D01*
X0021905Y0104671D01*
X0021740Y0104569D01*
X0021573Y0104472D01*
X0021404Y0104379D01*
X0021232Y0104290D01*
X0021059Y0104205D01*
X0020883Y0104125D01*
X0020705Y0104048D01*
X0020526Y0103977D01*
X0020345Y0103909D01*
X0020162Y0103846D01*
X0019978Y0103788D01*
X0019792Y0103734D01*
X0019605Y0103685D01*
X0019417Y0103640D01*
X0019228Y0103600D01*
X0019038Y0103565D01*
X0018847Y0103534D01*
X0018656Y0103508D01*
X0018464Y0103487D01*
X0018271Y0103470D01*
X0018078Y0103458D01*
X0017885Y0103451D01*
X0017692Y0103449D01*
X0017499Y0103451D01*
X0017306Y0103458D01*
X0017113Y0103470D01*
X0016920Y0103487D01*
X0016728Y0103508D01*
X0016537Y0103534D01*
X0016346Y0103565D01*
X0016156Y0103600D01*
X0015967Y0103640D01*
X0015779Y0103685D01*
X0015592Y0103734D01*
X0015406Y0103788D01*
X0015222Y0103846D01*
X0015039Y0103909D01*
X0014858Y0103977D01*
X0014679Y0104048D01*
X0014501Y0104125D01*
X0014325Y0104205D01*
X0014152Y0104290D01*
X0013980Y0104379D01*
X0013811Y0104472D01*
X0013644Y0104569D01*
X0013479Y0104671D01*
X0013317Y0104776D01*
X0013158Y0104885D01*
X0013001Y0104999D01*
X0012848Y0105116D01*
X0012697Y0105236D01*
X0012549Y0105361D01*
X0012404Y0105489D01*
X0012263Y0105620D01*
X0012124Y0105755D01*
X0011989Y0105894D01*
X0011858Y0106035D01*
X0011730Y0106180D01*
X0011605Y0106328D01*
X0011485Y0106479D01*
X0011368Y0106632D01*
X0011254Y0106789D01*
X0011145Y0106948D01*
X0011040Y0107110D01*
X0010938Y0107275D01*
X0010841Y0107442D01*
X0010748Y0107611D01*
X0010659Y0107783D01*
X0010574Y0107956D01*
X0010494Y0108132D01*
X0010417Y0108310D01*
X0010346Y0108489D01*
X0010278Y0108670D01*
X0010215Y0108853D01*
X0010157Y0109037D01*
X0010103Y0109223D01*
X0010054Y0109410D01*
X0010009Y0109598D01*
X0009969Y0109787D01*
X0009934Y0109977D01*
X0009903Y0110168D01*
X0009877Y0110359D01*
X0009856Y0110551D01*
X0009839Y0110744D01*
X0009827Y0110937D01*
X0009820Y0111130D01*
X0009818Y0111323D01*
X0238165Y0111323D02*
X0238167Y0111516D01*
X0238174Y0111709D01*
X0238186Y0111902D01*
X0238203Y0112095D01*
X0238224Y0112287D01*
X0238250Y0112478D01*
X0238281Y0112669D01*
X0238316Y0112859D01*
X0238356Y0113048D01*
X0238401Y0113236D01*
X0238450Y0113423D01*
X0238504Y0113609D01*
X0238562Y0113793D01*
X0238625Y0113976D01*
X0238693Y0114157D01*
X0238764Y0114336D01*
X0238841Y0114514D01*
X0238921Y0114690D01*
X0239006Y0114863D01*
X0239095Y0115035D01*
X0239188Y0115204D01*
X0239285Y0115371D01*
X0239387Y0115536D01*
X0239492Y0115698D01*
X0239601Y0115857D01*
X0239715Y0116014D01*
X0239832Y0116167D01*
X0239952Y0116318D01*
X0240077Y0116466D01*
X0240205Y0116611D01*
X0240336Y0116752D01*
X0240471Y0116891D01*
X0240610Y0117026D01*
X0240751Y0117157D01*
X0240896Y0117285D01*
X0241044Y0117410D01*
X0241195Y0117530D01*
X0241348Y0117647D01*
X0241505Y0117761D01*
X0241664Y0117870D01*
X0241826Y0117975D01*
X0241991Y0118077D01*
X0242158Y0118174D01*
X0242327Y0118267D01*
X0242499Y0118356D01*
X0242672Y0118441D01*
X0242848Y0118521D01*
X0243026Y0118598D01*
X0243205Y0118669D01*
X0243386Y0118737D01*
X0243569Y0118800D01*
X0243753Y0118858D01*
X0243939Y0118912D01*
X0244126Y0118961D01*
X0244314Y0119006D01*
X0244503Y0119046D01*
X0244693Y0119081D01*
X0244884Y0119112D01*
X0245075Y0119138D01*
X0245267Y0119159D01*
X0245460Y0119176D01*
X0245653Y0119188D01*
X0245846Y0119195D01*
X0246039Y0119197D01*
X0246232Y0119195D01*
X0246425Y0119188D01*
X0246618Y0119176D01*
X0246811Y0119159D01*
X0247003Y0119138D01*
X0247194Y0119112D01*
X0247385Y0119081D01*
X0247575Y0119046D01*
X0247764Y0119006D01*
X0247952Y0118961D01*
X0248139Y0118912D01*
X0248325Y0118858D01*
X0248509Y0118800D01*
X0248692Y0118737D01*
X0248873Y0118669D01*
X0249052Y0118598D01*
X0249230Y0118521D01*
X0249406Y0118441D01*
X0249579Y0118356D01*
X0249751Y0118267D01*
X0249920Y0118174D01*
X0250087Y0118077D01*
X0250252Y0117975D01*
X0250414Y0117870D01*
X0250573Y0117761D01*
X0250730Y0117647D01*
X0250883Y0117530D01*
X0251034Y0117410D01*
X0251182Y0117285D01*
X0251327Y0117157D01*
X0251468Y0117026D01*
X0251607Y0116891D01*
X0251742Y0116752D01*
X0251873Y0116611D01*
X0252001Y0116466D01*
X0252126Y0116318D01*
X0252246Y0116167D01*
X0252363Y0116014D01*
X0252477Y0115857D01*
X0252586Y0115698D01*
X0252691Y0115536D01*
X0252793Y0115371D01*
X0252890Y0115204D01*
X0252983Y0115035D01*
X0253072Y0114863D01*
X0253157Y0114690D01*
X0253237Y0114514D01*
X0253314Y0114336D01*
X0253385Y0114157D01*
X0253453Y0113976D01*
X0253516Y0113793D01*
X0253574Y0113609D01*
X0253628Y0113423D01*
X0253677Y0113236D01*
X0253722Y0113048D01*
X0253762Y0112859D01*
X0253797Y0112669D01*
X0253828Y0112478D01*
X0253854Y0112287D01*
X0253875Y0112095D01*
X0253892Y0111902D01*
X0253904Y0111709D01*
X0253911Y0111516D01*
X0253913Y0111323D01*
X0253911Y0111130D01*
X0253904Y0110937D01*
X0253892Y0110744D01*
X0253875Y0110551D01*
X0253854Y0110359D01*
X0253828Y0110168D01*
X0253797Y0109977D01*
X0253762Y0109787D01*
X0253722Y0109598D01*
X0253677Y0109410D01*
X0253628Y0109223D01*
X0253574Y0109037D01*
X0253516Y0108853D01*
X0253453Y0108670D01*
X0253385Y0108489D01*
X0253314Y0108310D01*
X0253237Y0108132D01*
X0253157Y0107956D01*
X0253072Y0107783D01*
X0252983Y0107611D01*
X0252890Y0107442D01*
X0252793Y0107275D01*
X0252691Y0107110D01*
X0252586Y0106948D01*
X0252477Y0106789D01*
X0252363Y0106632D01*
X0252246Y0106479D01*
X0252126Y0106328D01*
X0252001Y0106180D01*
X0251873Y0106035D01*
X0251742Y0105894D01*
X0251607Y0105755D01*
X0251468Y0105620D01*
X0251327Y0105489D01*
X0251182Y0105361D01*
X0251034Y0105236D01*
X0250883Y0105116D01*
X0250730Y0104999D01*
X0250573Y0104885D01*
X0250414Y0104776D01*
X0250252Y0104671D01*
X0250087Y0104569D01*
X0249920Y0104472D01*
X0249751Y0104379D01*
X0249579Y0104290D01*
X0249406Y0104205D01*
X0249230Y0104125D01*
X0249052Y0104048D01*
X0248873Y0103977D01*
X0248692Y0103909D01*
X0248509Y0103846D01*
X0248325Y0103788D01*
X0248139Y0103734D01*
X0247952Y0103685D01*
X0247764Y0103640D01*
X0247575Y0103600D01*
X0247385Y0103565D01*
X0247194Y0103534D01*
X0247003Y0103508D01*
X0246811Y0103487D01*
X0246618Y0103470D01*
X0246425Y0103458D01*
X0246232Y0103451D01*
X0246039Y0103449D01*
X0245846Y0103451D01*
X0245653Y0103458D01*
X0245460Y0103470D01*
X0245267Y0103487D01*
X0245075Y0103508D01*
X0244884Y0103534D01*
X0244693Y0103565D01*
X0244503Y0103600D01*
X0244314Y0103640D01*
X0244126Y0103685D01*
X0243939Y0103734D01*
X0243753Y0103788D01*
X0243569Y0103846D01*
X0243386Y0103909D01*
X0243205Y0103977D01*
X0243026Y0104048D01*
X0242848Y0104125D01*
X0242672Y0104205D01*
X0242499Y0104290D01*
X0242327Y0104379D01*
X0242158Y0104472D01*
X0241991Y0104569D01*
X0241826Y0104671D01*
X0241664Y0104776D01*
X0241505Y0104885D01*
X0241348Y0104999D01*
X0241195Y0105116D01*
X0241044Y0105236D01*
X0240896Y0105361D01*
X0240751Y0105489D01*
X0240610Y0105620D01*
X0240471Y0105755D01*
X0240336Y0105894D01*
X0240205Y0106035D01*
X0240077Y0106180D01*
X0239952Y0106328D01*
X0239832Y0106479D01*
X0239715Y0106632D01*
X0239601Y0106789D01*
X0239492Y0106948D01*
X0239387Y0107110D01*
X0239285Y0107275D01*
X0239188Y0107442D01*
X0239095Y0107611D01*
X0239006Y0107783D01*
X0238921Y0107956D01*
X0238841Y0108132D01*
X0238764Y0108310D01*
X0238693Y0108489D01*
X0238625Y0108670D01*
X0238562Y0108853D01*
X0238504Y0109037D01*
X0238450Y0109223D01*
X0238401Y0109410D01*
X0238356Y0109598D01*
X0238316Y0109787D01*
X0238281Y0109977D01*
X0238250Y0110168D01*
X0238224Y0110359D01*
X0238203Y0110551D01*
X0238186Y0110744D01*
X0238174Y0110937D01*
X0238167Y0111130D01*
X0238165Y0111323D01*
X0238165Y0020772D02*
X0238167Y0020965D01*
X0238174Y0021158D01*
X0238186Y0021351D01*
X0238203Y0021544D01*
X0238224Y0021736D01*
X0238250Y0021927D01*
X0238281Y0022118D01*
X0238316Y0022308D01*
X0238356Y0022497D01*
X0238401Y0022685D01*
X0238450Y0022872D01*
X0238504Y0023058D01*
X0238562Y0023242D01*
X0238625Y0023425D01*
X0238693Y0023606D01*
X0238764Y0023785D01*
X0238841Y0023963D01*
X0238921Y0024139D01*
X0239006Y0024312D01*
X0239095Y0024484D01*
X0239188Y0024653D01*
X0239285Y0024820D01*
X0239387Y0024985D01*
X0239492Y0025147D01*
X0239601Y0025306D01*
X0239715Y0025463D01*
X0239832Y0025616D01*
X0239952Y0025767D01*
X0240077Y0025915D01*
X0240205Y0026060D01*
X0240336Y0026201D01*
X0240471Y0026340D01*
X0240610Y0026475D01*
X0240751Y0026606D01*
X0240896Y0026734D01*
X0241044Y0026859D01*
X0241195Y0026979D01*
X0241348Y0027096D01*
X0241505Y0027210D01*
X0241664Y0027319D01*
X0241826Y0027424D01*
X0241991Y0027526D01*
X0242158Y0027623D01*
X0242327Y0027716D01*
X0242499Y0027805D01*
X0242672Y0027890D01*
X0242848Y0027970D01*
X0243026Y0028047D01*
X0243205Y0028118D01*
X0243386Y0028186D01*
X0243569Y0028249D01*
X0243753Y0028307D01*
X0243939Y0028361D01*
X0244126Y0028410D01*
X0244314Y0028455D01*
X0244503Y0028495D01*
X0244693Y0028530D01*
X0244884Y0028561D01*
X0245075Y0028587D01*
X0245267Y0028608D01*
X0245460Y0028625D01*
X0245653Y0028637D01*
X0245846Y0028644D01*
X0246039Y0028646D01*
X0246232Y0028644D01*
X0246425Y0028637D01*
X0246618Y0028625D01*
X0246811Y0028608D01*
X0247003Y0028587D01*
X0247194Y0028561D01*
X0247385Y0028530D01*
X0247575Y0028495D01*
X0247764Y0028455D01*
X0247952Y0028410D01*
X0248139Y0028361D01*
X0248325Y0028307D01*
X0248509Y0028249D01*
X0248692Y0028186D01*
X0248873Y0028118D01*
X0249052Y0028047D01*
X0249230Y0027970D01*
X0249406Y0027890D01*
X0249579Y0027805D01*
X0249751Y0027716D01*
X0249920Y0027623D01*
X0250087Y0027526D01*
X0250252Y0027424D01*
X0250414Y0027319D01*
X0250573Y0027210D01*
X0250730Y0027096D01*
X0250883Y0026979D01*
X0251034Y0026859D01*
X0251182Y0026734D01*
X0251327Y0026606D01*
X0251468Y0026475D01*
X0251607Y0026340D01*
X0251742Y0026201D01*
X0251873Y0026060D01*
X0252001Y0025915D01*
X0252126Y0025767D01*
X0252246Y0025616D01*
X0252363Y0025463D01*
X0252477Y0025306D01*
X0252586Y0025147D01*
X0252691Y0024985D01*
X0252793Y0024820D01*
X0252890Y0024653D01*
X0252983Y0024484D01*
X0253072Y0024312D01*
X0253157Y0024139D01*
X0253237Y0023963D01*
X0253314Y0023785D01*
X0253385Y0023606D01*
X0253453Y0023425D01*
X0253516Y0023242D01*
X0253574Y0023058D01*
X0253628Y0022872D01*
X0253677Y0022685D01*
X0253722Y0022497D01*
X0253762Y0022308D01*
X0253797Y0022118D01*
X0253828Y0021927D01*
X0253854Y0021736D01*
X0253875Y0021544D01*
X0253892Y0021351D01*
X0253904Y0021158D01*
X0253911Y0020965D01*
X0253913Y0020772D01*
X0253911Y0020579D01*
X0253904Y0020386D01*
X0253892Y0020193D01*
X0253875Y0020000D01*
X0253854Y0019808D01*
X0253828Y0019617D01*
X0253797Y0019426D01*
X0253762Y0019236D01*
X0253722Y0019047D01*
X0253677Y0018859D01*
X0253628Y0018672D01*
X0253574Y0018486D01*
X0253516Y0018302D01*
X0253453Y0018119D01*
X0253385Y0017938D01*
X0253314Y0017759D01*
X0253237Y0017581D01*
X0253157Y0017405D01*
X0253072Y0017232D01*
X0252983Y0017060D01*
X0252890Y0016891D01*
X0252793Y0016724D01*
X0252691Y0016559D01*
X0252586Y0016397D01*
X0252477Y0016238D01*
X0252363Y0016081D01*
X0252246Y0015928D01*
X0252126Y0015777D01*
X0252001Y0015629D01*
X0251873Y0015484D01*
X0251742Y0015343D01*
X0251607Y0015204D01*
X0251468Y0015069D01*
X0251327Y0014938D01*
X0251182Y0014810D01*
X0251034Y0014685D01*
X0250883Y0014565D01*
X0250730Y0014448D01*
X0250573Y0014334D01*
X0250414Y0014225D01*
X0250252Y0014120D01*
X0250087Y0014018D01*
X0249920Y0013921D01*
X0249751Y0013828D01*
X0249579Y0013739D01*
X0249406Y0013654D01*
X0249230Y0013574D01*
X0249052Y0013497D01*
X0248873Y0013426D01*
X0248692Y0013358D01*
X0248509Y0013295D01*
X0248325Y0013237D01*
X0248139Y0013183D01*
X0247952Y0013134D01*
X0247764Y0013089D01*
X0247575Y0013049D01*
X0247385Y0013014D01*
X0247194Y0012983D01*
X0247003Y0012957D01*
X0246811Y0012936D01*
X0246618Y0012919D01*
X0246425Y0012907D01*
X0246232Y0012900D01*
X0246039Y0012898D01*
X0245846Y0012900D01*
X0245653Y0012907D01*
X0245460Y0012919D01*
X0245267Y0012936D01*
X0245075Y0012957D01*
X0244884Y0012983D01*
X0244693Y0013014D01*
X0244503Y0013049D01*
X0244314Y0013089D01*
X0244126Y0013134D01*
X0243939Y0013183D01*
X0243753Y0013237D01*
X0243569Y0013295D01*
X0243386Y0013358D01*
X0243205Y0013426D01*
X0243026Y0013497D01*
X0242848Y0013574D01*
X0242672Y0013654D01*
X0242499Y0013739D01*
X0242327Y0013828D01*
X0242158Y0013921D01*
X0241991Y0014018D01*
X0241826Y0014120D01*
X0241664Y0014225D01*
X0241505Y0014334D01*
X0241348Y0014448D01*
X0241195Y0014565D01*
X0241044Y0014685D01*
X0240896Y0014810D01*
X0240751Y0014938D01*
X0240610Y0015069D01*
X0240471Y0015204D01*
X0240336Y0015343D01*
X0240205Y0015484D01*
X0240077Y0015629D01*
X0239952Y0015777D01*
X0239832Y0015928D01*
X0239715Y0016081D01*
X0239601Y0016238D01*
X0239492Y0016397D01*
X0239387Y0016559D01*
X0239285Y0016724D01*
X0239188Y0016891D01*
X0239095Y0017060D01*
X0239006Y0017232D01*
X0238921Y0017405D01*
X0238841Y0017581D01*
X0238764Y0017759D01*
X0238693Y0017938D01*
X0238625Y0018119D01*
X0238562Y0018302D01*
X0238504Y0018486D01*
X0238450Y0018672D01*
X0238401Y0018859D01*
X0238356Y0019047D01*
X0238316Y0019236D01*
X0238281Y0019426D01*
X0238250Y0019617D01*
X0238224Y0019808D01*
X0238203Y0020000D01*
X0238186Y0020193D01*
X0238174Y0020386D01*
X0238167Y0020579D01*
X0238165Y0020772D01*
D19*
X0086552Y0085242D02*
X0086309Y0085508D01*
X0086310Y0085508D02*
X0086384Y0085579D01*
X0086456Y0085653D01*
X0086525Y0085730D01*
X0086591Y0085809D01*
X0086654Y0085890D01*
X0086714Y0085974D01*
X0086770Y0086060D01*
X0086824Y0086149D01*
X0086874Y0086239D01*
X0086920Y0086331D01*
X0086963Y0086424D01*
X0087003Y0086519D01*
X0087039Y0086616D01*
X0087071Y0086714D01*
X0087100Y0086813D01*
X0087125Y0086913D01*
X0087146Y0087014D01*
X0087163Y0087115D01*
X0087177Y0087217D01*
X0087186Y0087320D01*
X0087192Y0087423D01*
X0087194Y0087526D01*
X0087192Y0087629D01*
X0087186Y0087732D01*
X0087177Y0087835D01*
X0087163Y0087937D01*
X0087146Y0088038D01*
X0087125Y0088139D01*
X0087100Y0088239D01*
X0087071Y0088338D01*
X0087039Y0088436D01*
X0087003Y0088533D01*
X0086963Y0088628D01*
X0086920Y0088721D01*
X0086874Y0088813D01*
X0086824Y0088903D01*
X0086770Y0088992D01*
X0086714Y0089078D01*
X0086654Y0089162D01*
X0086591Y0089243D01*
X0086525Y0089322D01*
X0086456Y0089399D01*
X0086384Y0089473D01*
X0086310Y0089544D01*
X0086552Y0089810D01*
X0086552Y0089811D01*
X0086631Y0089735D01*
X0086707Y0089657D01*
X0086781Y0089576D01*
X0086852Y0089493D01*
X0086919Y0089407D01*
X0086984Y0089319D01*
X0087045Y0089229D01*
X0087104Y0089137D01*
X0087159Y0089042D01*
X0087210Y0088946D01*
X0087259Y0088848D01*
X0087303Y0088748D01*
X0087345Y0088647D01*
X0087382Y0088545D01*
X0087416Y0088441D01*
X0087447Y0088336D01*
X0087473Y0088230D01*
X0087496Y0088123D01*
X0087515Y0088016D01*
X0087530Y0087907D01*
X0087542Y0087799D01*
X0087550Y0087690D01*
X0087554Y0087581D01*
X0087554Y0087471D01*
X0087550Y0087362D01*
X0087542Y0087253D01*
X0087530Y0087145D01*
X0087515Y0087036D01*
X0087496Y0086929D01*
X0087473Y0086822D01*
X0087447Y0086716D01*
X0087416Y0086611D01*
X0087382Y0086507D01*
X0087345Y0086405D01*
X0087303Y0086304D01*
X0087259Y0086204D01*
X0087210Y0086106D01*
X0087159Y0086010D01*
X0087104Y0085915D01*
X0087045Y0085823D01*
X0086984Y0085733D01*
X0086919Y0085645D01*
X0086852Y0085559D01*
X0086781Y0085476D01*
X0086707Y0085395D01*
X0086631Y0085317D01*
X0086552Y0085241D01*
X0086527Y0085269D01*
X0086605Y0085343D01*
X0086681Y0085420D01*
X0086753Y0085500D01*
X0086823Y0085582D01*
X0086890Y0085667D01*
X0086954Y0085754D01*
X0087015Y0085843D01*
X0087072Y0085935D01*
X0087127Y0086028D01*
X0087178Y0086123D01*
X0087225Y0086220D01*
X0087269Y0086318D01*
X0087310Y0086418D01*
X0087347Y0086520D01*
X0087381Y0086622D01*
X0087411Y0086726D01*
X0087437Y0086831D01*
X0087460Y0086936D01*
X0087479Y0087042D01*
X0087494Y0087149D01*
X0087505Y0087257D01*
X0087513Y0087364D01*
X0087517Y0087472D01*
X0087517Y0087580D01*
X0087513Y0087688D01*
X0087505Y0087795D01*
X0087494Y0087903D01*
X0087479Y0088010D01*
X0087460Y0088116D01*
X0087437Y0088221D01*
X0087411Y0088326D01*
X0087381Y0088430D01*
X0087347Y0088532D01*
X0087310Y0088634D01*
X0087269Y0088734D01*
X0087225Y0088832D01*
X0087178Y0088929D01*
X0087127Y0089024D01*
X0087072Y0089117D01*
X0087015Y0089209D01*
X0086954Y0089298D01*
X0086890Y0089385D01*
X0086823Y0089470D01*
X0086753Y0089552D01*
X0086681Y0089632D01*
X0086605Y0089709D01*
X0086527Y0089783D01*
X0086502Y0089756D01*
X0086581Y0089681D01*
X0086657Y0089603D01*
X0086730Y0089522D01*
X0086801Y0089439D01*
X0086868Y0089353D01*
X0086932Y0089265D01*
X0086993Y0089175D01*
X0087050Y0089082D01*
X0087104Y0088988D01*
X0087155Y0088891D01*
X0087203Y0088793D01*
X0087246Y0088693D01*
X0087286Y0088592D01*
X0087323Y0088489D01*
X0087356Y0088386D01*
X0087385Y0088281D01*
X0087410Y0088175D01*
X0087431Y0088068D01*
X0087449Y0087960D01*
X0087462Y0087852D01*
X0087472Y0087744D01*
X0087478Y0087635D01*
X0087480Y0087526D01*
X0087478Y0087417D01*
X0087472Y0087308D01*
X0087462Y0087200D01*
X0087449Y0087092D01*
X0087431Y0086984D01*
X0087410Y0086877D01*
X0087385Y0086771D01*
X0087356Y0086666D01*
X0087323Y0086563D01*
X0087286Y0086460D01*
X0087246Y0086359D01*
X0087203Y0086259D01*
X0087155Y0086161D01*
X0087104Y0086064D01*
X0087050Y0085970D01*
X0086993Y0085877D01*
X0086932Y0085787D01*
X0086868Y0085699D01*
X0086801Y0085613D01*
X0086730Y0085530D01*
X0086657Y0085449D01*
X0086581Y0085371D01*
X0086502Y0085296D01*
X0086477Y0085323D01*
X0086555Y0085398D01*
X0086630Y0085475D01*
X0086703Y0085554D01*
X0086772Y0085637D01*
X0086838Y0085721D01*
X0086902Y0085808D01*
X0086962Y0085898D01*
X0087019Y0085989D01*
X0087072Y0086082D01*
X0087122Y0086178D01*
X0087169Y0086274D01*
X0087212Y0086373D01*
X0087252Y0086473D01*
X0087288Y0086574D01*
X0087320Y0086677D01*
X0087349Y0086781D01*
X0087374Y0086885D01*
X0087395Y0086991D01*
X0087412Y0087097D01*
X0087426Y0087204D01*
X0087435Y0087311D01*
X0087441Y0087418D01*
X0087443Y0087526D01*
X0087441Y0087634D01*
X0087435Y0087741D01*
X0087426Y0087848D01*
X0087412Y0087955D01*
X0087395Y0088061D01*
X0087374Y0088167D01*
X0087349Y0088271D01*
X0087320Y0088375D01*
X0087288Y0088478D01*
X0087252Y0088579D01*
X0087212Y0088679D01*
X0087169Y0088778D01*
X0087122Y0088874D01*
X0087072Y0088970D01*
X0087019Y0089063D01*
X0086962Y0089154D01*
X0086902Y0089244D01*
X0086838Y0089331D01*
X0086772Y0089415D01*
X0086703Y0089498D01*
X0086630Y0089577D01*
X0086555Y0089654D01*
X0086477Y0089729D01*
X0086453Y0089701D01*
X0086531Y0089626D01*
X0086607Y0089548D01*
X0086680Y0089468D01*
X0086749Y0089384D01*
X0086816Y0089299D01*
X0086879Y0089211D01*
X0086940Y0089120D01*
X0086997Y0089028D01*
X0087050Y0088933D01*
X0087100Y0088837D01*
X0087146Y0088738D01*
X0087189Y0088638D01*
X0087228Y0088537D01*
X0087263Y0088434D01*
X0087295Y0088330D01*
X0087322Y0088225D01*
X0087346Y0088119D01*
X0087366Y0088013D01*
X0087382Y0087905D01*
X0087394Y0087797D01*
X0087402Y0087689D01*
X0087406Y0087580D01*
X0087406Y0087472D01*
X0087402Y0087363D01*
X0087394Y0087255D01*
X0087382Y0087147D01*
X0087366Y0087039D01*
X0087346Y0086933D01*
X0087322Y0086827D01*
X0087295Y0086722D01*
X0087263Y0086618D01*
X0087228Y0086515D01*
X0087189Y0086414D01*
X0087146Y0086314D01*
X0087100Y0086215D01*
X0087050Y0086119D01*
X0086997Y0086024D01*
X0086940Y0085932D01*
X0086879Y0085841D01*
X0086816Y0085753D01*
X0086749Y0085668D01*
X0086680Y0085584D01*
X0086607Y0085504D01*
X0086531Y0085426D01*
X0086453Y0085351D01*
X0086428Y0085378D01*
X0086505Y0085452D01*
X0086580Y0085529D01*
X0086652Y0085609D01*
X0086721Y0085691D01*
X0086786Y0085776D01*
X0086849Y0085863D01*
X0086909Y0085952D01*
X0086965Y0086043D01*
X0087017Y0086137D01*
X0087067Y0086232D01*
X0087112Y0086329D01*
X0087155Y0086428D01*
X0087193Y0086528D01*
X0087228Y0086629D01*
X0087259Y0086732D01*
X0087286Y0086835D01*
X0087310Y0086940D01*
X0087329Y0087046D01*
X0087345Y0087152D01*
X0087357Y0087258D01*
X0087365Y0087365D01*
X0087369Y0087472D01*
X0087369Y0087580D01*
X0087365Y0087687D01*
X0087357Y0087794D01*
X0087345Y0087900D01*
X0087329Y0088006D01*
X0087310Y0088112D01*
X0087286Y0088217D01*
X0087259Y0088320D01*
X0087228Y0088423D01*
X0087193Y0088524D01*
X0087155Y0088624D01*
X0087112Y0088723D01*
X0087067Y0088820D01*
X0087017Y0088915D01*
X0086965Y0089009D01*
X0086909Y0089100D01*
X0086849Y0089189D01*
X0086786Y0089276D01*
X0086721Y0089361D01*
X0086652Y0089443D01*
X0086580Y0089523D01*
X0086505Y0089600D01*
X0086428Y0089674D01*
X0086403Y0089646D01*
X0086479Y0089573D01*
X0086553Y0089497D01*
X0086624Y0089419D01*
X0086692Y0089338D01*
X0086757Y0089254D01*
X0086819Y0089168D01*
X0086878Y0089080D01*
X0086933Y0088990D01*
X0086985Y0088898D01*
X0087034Y0088804D01*
X0087079Y0088708D01*
X0087120Y0088610D01*
X0087158Y0088512D01*
X0087193Y0088411D01*
X0087223Y0088310D01*
X0087250Y0088208D01*
X0087273Y0088104D01*
X0087293Y0088000D01*
X0087308Y0087896D01*
X0087320Y0087790D01*
X0087328Y0087685D01*
X0087332Y0087579D01*
X0087332Y0087473D01*
X0087328Y0087367D01*
X0087320Y0087262D01*
X0087308Y0087156D01*
X0087293Y0087052D01*
X0087273Y0086948D01*
X0087250Y0086844D01*
X0087223Y0086742D01*
X0087193Y0086641D01*
X0087158Y0086540D01*
X0087120Y0086442D01*
X0087079Y0086344D01*
X0087034Y0086248D01*
X0086985Y0086154D01*
X0086933Y0086062D01*
X0086878Y0085972D01*
X0086819Y0085884D01*
X0086757Y0085798D01*
X0086692Y0085714D01*
X0086624Y0085633D01*
X0086553Y0085555D01*
X0086479Y0085479D01*
X0086403Y0085406D01*
X0086378Y0085433D01*
X0086453Y0085505D01*
X0086526Y0085580D01*
X0086596Y0085658D01*
X0086663Y0085738D01*
X0086727Y0085820D01*
X0086789Y0085905D01*
X0086846Y0085992D01*
X0086901Y0086081D01*
X0086952Y0086172D01*
X0087000Y0086265D01*
X0087045Y0086360D01*
X0087086Y0086456D01*
X0087124Y0086553D01*
X0087158Y0086652D01*
X0087188Y0086752D01*
X0087214Y0086853D01*
X0087237Y0086955D01*
X0087256Y0087058D01*
X0087272Y0087161D01*
X0087283Y0087265D01*
X0087291Y0087369D01*
X0087295Y0087474D01*
X0087295Y0087578D01*
X0087291Y0087683D01*
X0087283Y0087787D01*
X0087272Y0087891D01*
X0087256Y0087994D01*
X0087237Y0088097D01*
X0087214Y0088199D01*
X0087188Y0088300D01*
X0087158Y0088400D01*
X0087124Y0088499D01*
X0087086Y0088596D01*
X0087045Y0088692D01*
X0087000Y0088787D01*
X0086952Y0088880D01*
X0086901Y0088971D01*
X0086846Y0089060D01*
X0086789Y0089147D01*
X0086727Y0089232D01*
X0086663Y0089314D01*
X0086596Y0089394D01*
X0086526Y0089472D01*
X0086453Y0089547D01*
X0086378Y0089619D01*
X0086353Y0089592D01*
X0086429Y0089519D01*
X0086503Y0089443D01*
X0086573Y0089365D01*
X0086641Y0089284D01*
X0086705Y0089200D01*
X0086766Y0089114D01*
X0086824Y0089026D01*
X0086879Y0088936D01*
X0086930Y0088844D01*
X0086978Y0088749D01*
X0087022Y0088654D01*
X0087062Y0088556D01*
X0087099Y0088457D01*
X0087132Y0088357D01*
X0087162Y0088256D01*
X0087187Y0088154D01*
X0087209Y0088050D01*
X0087226Y0087946D01*
X0087240Y0087842D01*
X0087250Y0087737D01*
X0087256Y0087631D01*
X0087258Y0087526D01*
X0087256Y0087421D01*
X0087250Y0087315D01*
X0087240Y0087210D01*
X0087226Y0087106D01*
X0087209Y0087002D01*
X0087187Y0086898D01*
X0087162Y0086796D01*
X0087132Y0086695D01*
X0087099Y0086595D01*
X0087062Y0086496D01*
X0087022Y0086398D01*
X0086978Y0086303D01*
X0086930Y0086208D01*
X0086879Y0086116D01*
X0086824Y0086026D01*
X0086766Y0085938D01*
X0086705Y0085852D01*
X0086641Y0085768D01*
X0086573Y0085687D01*
X0086503Y0085609D01*
X0086429Y0085533D01*
X0086353Y0085460D01*
X0086328Y0085488D01*
X0086403Y0085560D01*
X0086476Y0085634D01*
X0086545Y0085712D01*
X0086612Y0085792D01*
X0086675Y0085874D01*
X0086736Y0085959D01*
X0086793Y0086046D01*
X0086847Y0086135D01*
X0086897Y0086226D01*
X0086944Y0086319D01*
X0086988Y0086413D01*
X0087028Y0086509D01*
X0087064Y0086607D01*
X0087097Y0086706D01*
X0087126Y0086806D01*
X0087151Y0086907D01*
X0087172Y0087009D01*
X0087190Y0087111D01*
X0087203Y0087214D01*
X0087213Y0087318D01*
X0087219Y0087422D01*
X0087221Y0087526D01*
X0087219Y0087630D01*
X0087213Y0087734D01*
X0087203Y0087838D01*
X0087190Y0087941D01*
X0087172Y0088043D01*
X0087151Y0088145D01*
X0087126Y0088246D01*
X0087097Y0088346D01*
X0087064Y0088445D01*
X0087028Y0088543D01*
X0086988Y0088639D01*
X0086944Y0088733D01*
X0086897Y0088826D01*
X0086847Y0088917D01*
X0086793Y0089006D01*
X0086736Y0089093D01*
X0086675Y0089178D01*
X0086612Y0089260D01*
X0086545Y0089340D01*
X0086476Y0089418D01*
X0086403Y0089492D01*
X0086328Y0089564D01*
X0082344Y0089810D02*
X0082587Y0089544D01*
X0082586Y0089544D02*
X0082512Y0089473D01*
X0082440Y0089399D01*
X0082371Y0089322D01*
X0082305Y0089243D01*
X0082242Y0089162D01*
X0082182Y0089078D01*
X0082126Y0088992D01*
X0082072Y0088903D01*
X0082022Y0088813D01*
X0081976Y0088721D01*
X0081933Y0088628D01*
X0081893Y0088533D01*
X0081857Y0088436D01*
X0081825Y0088338D01*
X0081796Y0088239D01*
X0081771Y0088139D01*
X0081750Y0088038D01*
X0081733Y0087937D01*
X0081719Y0087835D01*
X0081710Y0087732D01*
X0081704Y0087629D01*
X0081702Y0087526D01*
X0081704Y0087423D01*
X0081710Y0087320D01*
X0081719Y0087217D01*
X0081733Y0087115D01*
X0081750Y0087014D01*
X0081771Y0086913D01*
X0081796Y0086813D01*
X0081825Y0086714D01*
X0081857Y0086616D01*
X0081893Y0086519D01*
X0081933Y0086424D01*
X0081976Y0086331D01*
X0082022Y0086239D01*
X0082072Y0086149D01*
X0082126Y0086060D01*
X0082182Y0085974D01*
X0082242Y0085890D01*
X0082305Y0085809D01*
X0082371Y0085730D01*
X0082440Y0085653D01*
X0082512Y0085579D01*
X0082586Y0085508D01*
X0082344Y0085242D01*
X0082344Y0085241D01*
X0082265Y0085317D01*
X0082189Y0085395D01*
X0082115Y0085476D01*
X0082044Y0085559D01*
X0081977Y0085645D01*
X0081912Y0085733D01*
X0081851Y0085823D01*
X0081792Y0085915D01*
X0081737Y0086010D01*
X0081686Y0086106D01*
X0081637Y0086204D01*
X0081593Y0086304D01*
X0081551Y0086405D01*
X0081514Y0086507D01*
X0081480Y0086611D01*
X0081449Y0086716D01*
X0081423Y0086822D01*
X0081400Y0086929D01*
X0081381Y0087036D01*
X0081366Y0087145D01*
X0081354Y0087253D01*
X0081346Y0087362D01*
X0081342Y0087471D01*
X0081342Y0087581D01*
X0081346Y0087690D01*
X0081354Y0087799D01*
X0081366Y0087907D01*
X0081381Y0088016D01*
X0081400Y0088123D01*
X0081423Y0088230D01*
X0081449Y0088336D01*
X0081480Y0088441D01*
X0081514Y0088545D01*
X0081551Y0088647D01*
X0081593Y0088748D01*
X0081637Y0088848D01*
X0081686Y0088946D01*
X0081737Y0089042D01*
X0081792Y0089137D01*
X0081851Y0089229D01*
X0081912Y0089319D01*
X0081977Y0089407D01*
X0082044Y0089493D01*
X0082115Y0089576D01*
X0082189Y0089657D01*
X0082265Y0089735D01*
X0082344Y0089811D01*
X0082369Y0089783D01*
X0082291Y0089709D01*
X0082215Y0089632D01*
X0082143Y0089552D01*
X0082073Y0089470D01*
X0082006Y0089385D01*
X0081942Y0089298D01*
X0081881Y0089209D01*
X0081824Y0089117D01*
X0081769Y0089024D01*
X0081718Y0088929D01*
X0081671Y0088832D01*
X0081627Y0088734D01*
X0081586Y0088634D01*
X0081549Y0088532D01*
X0081515Y0088430D01*
X0081485Y0088326D01*
X0081459Y0088221D01*
X0081436Y0088116D01*
X0081417Y0088010D01*
X0081402Y0087903D01*
X0081391Y0087795D01*
X0081383Y0087688D01*
X0081379Y0087580D01*
X0081379Y0087472D01*
X0081383Y0087364D01*
X0081391Y0087257D01*
X0081402Y0087149D01*
X0081417Y0087042D01*
X0081436Y0086936D01*
X0081459Y0086831D01*
X0081485Y0086726D01*
X0081515Y0086622D01*
X0081549Y0086520D01*
X0081586Y0086418D01*
X0081627Y0086318D01*
X0081671Y0086220D01*
X0081718Y0086123D01*
X0081769Y0086028D01*
X0081824Y0085935D01*
X0081881Y0085843D01*
X0081942Y0085754D01*
X0082006Y0085667D01*
X0082073Y0085582D01*
X0082143Y0085500D01*
X0082215Y0085420D01*
X0082291Y0085343D01*
X0082369Y0085269D01*
X0082394Y0085296D01*
X0082315Y0085371D01*
X0082239Y0085449D01*
X0082166Y0085530D01*
X0082095Y0085613D01*
X0082028Y0085699D01*
X0081964Y0085787D01*
X0081903Y0085877D01*
X0081846Y0085970D01*
X0081792Y0086064D01*
X0081741Y0086161D01*
X0081693Y0086259D01*
X0081650Y0086359D01*
X0081610Y0086460D01*
X0081573Y0086563D01*
X0081540Y0086666D01*
X0081511Y0086771D01*
X0081486Y0086877D01*
X0081465Y0086984D01*
X0081447Y0087092D01*
X0081434Y0087200D01*
X0081424Y0087308D01*
X0081418Y0087417D01*
X0081416Y0087526D01*
X0081418Y0087635D01*
X0081424Y0087744D01*
X0081434Y0087852D01*
X0081447Y0087960D01*
X0081465Y0088068D01*
X0081486Y0088175D01*
X0081511Y0088281D01*
X0081540Y0088386D01*
X0081573Y0088489D01*
X0081610Y0088592D01*
X0081650Y0088693D01*
X0081693Y0088793D01*
X0081741Y0088891D01*
X0081792Y0088988D01*
X0081846Y0089082D01*
X0081903Y0089175D01*
X0081964Y0089265D01*
X0082028Y0089353D01*
X0082095Y0089439D01*
X0082166Y0089522D01*
X0082239Y0089603D01*
X0082315Y0089681D01*
X0082394Y0089756D01*
X0082419Y0089729D01*
X0082341Y0089654D01*
X0082266Y0089577D01*
X0082193Y0089498D01*
X0082124Y0089415D01*
X0082058Y0089331D01*
X0081994Y0089244D01*
X0081934Y0089154D01*
X0081877Y0089063D01*
X0081824Y0088970D01*
X0081774Y0088874D01*
X0081727Y0088778D01*
X0081684Y0088679D01*
X0081644Y0088579D01*
X0081608Y0088478D01*
X0081576Y0088375D01*
X0081547Y0088271D01*
X0081522Y0088167D01*
X0081501Y0088061D01*
X0081484Y0087955D01*
X0081470Y0087848D01*
X0081461Y0087741D01*
X0081455Y0087634D01*
X0081453Y0087526D01*
X0081455Y0087418D01*
X0081461Y0087311D01*
X0081470Y0087204D01*
X0081484Y0087097D01*
X0081501Y0086991D01*
X0081522Y0086885D01*
X0081547Y0086781D01*
X0081576Y0086677D01*
X0081608Y0086574D01*
X0081644Y0086473D01*
X0081684Y0086373D01*
X0081727Y0086274D01*
X0081774Y0086178D01*
X0081824Y0086082D01*
X0081877Y0085989D01*
X0081934Y0085898D01*
X0081994Y0085808D01*
X0082058Y0085721D01*
X0082124Y0085637D01*
X0082193Y0085554D01*
X0082266Y0085475D01*
X0082341Y0085398D01*
X0082419Y0085323D01*
X0082443Y0085351D01*
X0082365Y0085426D01*
X0082289Y0085504D01*
X0082216Y0085584D01*
X0082147Y0085668D01*
X0082080Y0085753D01*
X0082017Y0085841D01*
X0081956Y0085932D01*
X0081899Y0086024D01*
X0081846Y0086119D01*
X0081796Y0086215D01*
X0081750Y0086314D01*
X0081707Y0086414D01*
X0081668Y0086515D01*
X0081633Y0086618D01*
X0081601Y0086722D01*
X0081574Y0086827D01*
X0081550Y0086933D01*
X0081530Y0087039D01*
X0081514Y0087147D01*
X0081502Y0087255D01*
X0081494Y0087363D01*
X0081490Y0087472D01*
X0081490Y0087580D01*
X0081494Y0087689D01*
X0081502Y0087797D01*
X0081514Y0087905D01*
X0081530Y0088013D01*
X0081550Y0088119D01*
X0081574Y0088225D01*
X0081601Y0088330D01*
X0081633Y0088434D01*
X0081668Y0088537D01*
X0081707Y0088638D01*
X0081750Y0088738D01*
X0081796Y0088837D01*
X0081846Y0088933D01*
X0081899Y0089028D01*
X0081956Y0089120D01*
X0082017Y0089211D01*
X0082080Y0089299D01*
X0082147Y0089384D01*
X0082216Y0089468D01*
X0082289Y0089548D01*
X0082365Y0089626D01*
X0082443Y0089701D01*
X0082468Y0089674D01*
X0082391Y0089600D01*
X0082316Y0089523D01*
X0082244Y0089443D01*
X0082175Y0089361D01*
X0082110Y0089276D01*
X0082047Y0089189D01*
X0081987Y0089100D01*
X0081931Y0089009D01*
X0081879Y0088915D01*
X0081829Y0088820D01*
X0081784Y0088723D01*
X0081741Y0088624D01*
X0081703Y0088524D01*
X0081668Y0088423D01*
X0081637Y0088320D01*
X0081610Y0088217D01*
X0081586Y0088112D01*
X0081567Y0088006D01*
X0081551Y0087900D01*
X0081539Y0087794D01*
X0081531Y0087687D01*
X0081527Y0087580D01*
X0081527Y0087472D01*
X0081531Y0087365D01*
X0081539Y0087258D01*
X0081551Y0087152D01*
X0081567Y0087046D01*
X0081586Y0086940D01*
X0081610Y0086835D01*
X0081637Y0086732D01*
X0081668Y0086629D01*
X0081703Y0086528D01*
X0081741Y0086428D01*
X0081784Y0086329D01*
X0081829Y0086232D01*
X0081879Y0086137D01*
X0081931Y0086043D01*
X0081987Y0085952D01*
X0082047Y0085863D01*
X0082110Y0085776D01*
X0082175Y0085691D01*
X0082244Y0085609D01*
X0082316Y0085529D01*
X0082391Y0085452D01*
X0082468Y0085378D01*
X0082493Y0085406D01*
X0082417Y0085479D01*
X0082343Y0085555D01*
X0082272Y0085633D01*
X0082204Y0085714D01*
X0082139Y0085798D01*
X0082077Y0085884D01*
X0082018Y0085972D01*
X0081963Y0086062D01*
X0081911Y0086154D01*
X0081862Y0086248D01*
X0081817Y0086344D01*
X0081776Y0086442D01*
X0081738Y0086540D01*
X0081703Y0086641D01*
X0081673Y0086742D01*
X0081646Y0086844D01*
X0081623Y0086948D01*
X0081603Y0087052D01*
X0081588Y0087156D01*
X0081576Y0087262D01*
X0081568Y0087367D01*
X0081564Y0087473D01*
X0081564Y0087579D01*
X0081568Y0087685D01*
X0081576Y0087790D01*
X0081588Y0087896D01*
X0081603Y0088000D01*
X0081623Y0088104D01*
X0081646Y0088208D01*
X0081673Y0088310D01*
X0081703Y0088411D01*
X0081738Y0088512D01*
X0081776Y0088610D01*
X0081817Y0088708D01*
X0081862Y0088804D01*
X0081911Y0088898D01*
X0081963Y0088990D01*
X0082018Y0089080D01*
X0082077Y0089168D01*
X0082139Y0089254D01*
X0082204Y0089338D01*
X0082272Y0089419D01*
X0082343Y0089497D01*
X0082417Y0089573D01*
X0082493Y0089646D01*
X0082518Y0089619D01*
X0082443Y0089547D01*
X0082370Y0089472D01*
X0082300Y0089394D01*
X0082233Y0089314D01*
X0082169Y0089232D01*
X0082107Y0089147D01*
X0082050Y0089060D01*
X0081995Y0088971D01*
X0081944Y0088880D01*
X0081896Y0088787D01*
X0081851Y0088692D01*
X0081810Y0088596D01*
X0081772Y0088499D01*
X0081738Y0088400D01*
X0081708Y0088300D01*
X0081682Y0088199D01*
X0081659Y0088097D01*
X0081640Y0087994D01*
X0081624Y0087891D01*
X0081613Y0087787D01*
X0081605Y0087683D01*
X0081601Y0087578D01*
X0081601Y0087474D01*
X0081605Y0087369D01*
X0081613Y0087265D01*
X0081624Y0087161D01*
X0081640Y0087058D01*
X0081659Y0086955D01*
X0081682Y0086853D01*
X0081708Y0086752D01*
X0081738Y0086652D01*
X0081772Y0086553D01*
X0081810Y0086456D01*
X0081851Y0086360D01*
X0081896Y0086265D01*
X0081944Y0086172D01*
X0081995Y0086081D01*
X0082050Y0085992D01*
X0082107Y0085905D01*
X0082169Y0085820D01*
X0082233Y0085738D01*
X0082300Y0085658D01*
X0082370Y0085580D01*
X0082443Y0085505D01*
X0082518Y0085433D01*
X0082543Y0085460D01*
X0082467Y0085533D01*
X0082393Y0085609D01*
X0082323Y0085687D01*
X0082255Y0085768D01*
X0082191Y0085852D01*
X0082130Y0085938D01*
X0082072Y0086026D01*
X0082017Y0086116D01*
X0081966Y0086208D01*
X0081918Y0086303D01*
X0081874Y0086398D01*
X0081834Y0086496D01*
X0081797Y0086595D01*
X0081764Y0086695D01*
X0081734Y0086796D01*
X0081709Y0086898D01*
X0081687Y0087002D01*
X0081670Y0087106D01*
X0081656Y0087210D01*
X0081646Y0087315D01*
X0081640Y0087421D01*
X0081638Y0087526D01*
X0081640Y0087631D01*
X0081646Y0087737D01*
X0081656Y0087842D01*
X0081670Y0087946D01*
X0081687Y0088050D01*
X0081709Y0088154D01*
X0081734Y0088256D01*
X0081764Y0088357D01*
X0081797Y0088457D01*
X0081834Y0088556D01*
X0081874Y0088654D01*
X0081918Y0088749D01*
X0081966Y0088844D01*
X0082017Y0088936D01*
X0082072Y0089026D01*
X0082130Y0089114D01*
X0082191Y0089200D01*
X0082255Y0089284D01*
X0082323Y0089365D01*
X0082393Y0089443D01*
X0082467Y0089519D01*
X0082543Y0089592D01*
X0082568Y0089564D01*
X0082493Y0089492D01*
X0082420Y0089418D01*
X0082351Y0089340D01*
X0082284Y0089260D01*
X0082221Y0089178D01*
X0082160Y0089093D01*
X0082103Y0089006D01*
X0082049Y0088917D01*
X0081999Y0088826D01*
X0081952Y0088733D01*
X0081908Y0088639D01*
X0081868Y0088543D01*
X0081832Y0088445D01*
X0081799Y0088346D01*
X0081770Y0088246D01*
X0081745Y0088145D01*
X0081724Y0088043D01*
X0081706Y0087941D01*
X0081693Y0087838D01*
X0081683Y0087734D01*
X0081677Y0087630D01*
X0081675Y0087526D01*
X0081677Y0087422D01*
X0081683Y0087318D01*
X0081693Y0087214D01*
X0081706Y0087111D01*
X0081724Y0087009D01*
X0081745Y0086907D01*
X0081770Y0086806D01*
X0081799Y0086706D01*
X0081832Y0086607D01*
X0081868Y0086509D01*
X0081908Y0086413D01*
X0081952Y0086319D01*
X0081999Y0086226D01*
X0082049Y0086135D01*
X0082103Y0086046D01*
X0082160Y0085959D01*
X0082221Y0085874D01*
X0082284Y0085792D01*
X0082351Y0085712D01*
X0082420Y0085634D01*
X0082493Y0085560D01*
X0082568Y0085488D01*
D20*
X0084448Y0087526D03*
D21*
X0082184Y0085459D03*
M02*
