%
M48
M72
T01C0.01378
T02C0.03200
T03C0.03937
T04C0.04000
T05C0.09843
%
T01
X77209Y59203
X84620Y59203
X92032Y59203
X99444Y59203
X106855Y59203
X114267Y59203
X125769Y61059
X125348Y66509
X125010Y72168
X125432Y54029
X82811Y74179
X39351Y92954
X178135Y32011
X231305Y85903
X228359Y99932
X220314Y100631
T02
X57422Y84124
X47422Y84124
T03
X31823Y81001
X21823Y81001
X11823Y81001
X11823Y91001
X21823Y91001
X31823Y91001
X31823Y71001
X21823Y71001
X11823Y71001
X11823Y61001
X21823Y61001
X31823Y61001
X18775Y48253
X18775Y38253
X41548Y23190
X51548Y23190
X61548Y23190
X71548Y23190
X81548Y23190
X91548Y23190
X101548Y23190
X111548Y23190
X121548Y23190
X140478Y23190
X150478Y23190
X160478Y23190
X170478Y23190
X189408Y23190
X199408Y23190
X209408Y23190
X219408Y23190
X244448Y41047
X244448Y51047
X244448Y61047
X244448Y71047
X244448Y81047
X244448Y91047
X217241Y93692
X217241Y83692
X217241Y73692
T04
X195392Y73692
X195392Y83692
X195392Y93692
X196865Y106323
X186865Y106323
X176865Y106323
X166865Y106323
X156865Y106323
X146865Y106323
X136865Y106323
X126865Y106323
X116865Y106323
X106865Y106323
X96865Y106323
X86865Y106323
X76865Y106323
X66865Y106323
X56865Y106323
X46865Y106323
X36865Y106323
X36865Y116323
X46865Y116323
X56865Y116323
X66865Y116323
X76865Y116323
X86865Y116323
X96865Y116323
X106865Y116323
X116865Y116323
X126865Y116323
X136865Y116323
X146865Y116323
X156865Y116323
X166865Y116323
X176865Y116323
X186865Y116323
X196865Y116323
X206865Y116323
X216865Y116323
X226865Y116323
X226865Y106323
X216865Y106323
X206865Y106323
T05
X17692Y20772
X17692Y111323
X246039Y111323
X246039Y20772
M30
